<?xml version="1.0" encoding="utf-8"?>
<!-- Generator: Adobe Illustrator 19.0.0, SVG Export Plug-In . SVG Version: 6.00 Build 0)  -->
<svg version="1.1" id="Layer_1" xmlns="http://www.w3.org/2000/svg" xmlns:xlink="http://www.w3.org/1999/xlink" x="0px" y="0px"
	 viewBox="0 0 330 200" style="enable-background:new 0 0 330 200;" xml:space="preserve">
<style type="text/css">
	.st0{fill:#AB8434;}
	.st1{fill:#4C4C4C;}
	.st2{fill:#9E906D;}
	.st3{fill:#8C9091;}
	.st4{fill:#FEFEFE;}
</style>
<path class="st0" d="M100.8,81.5c-3,1.2-5.8,2.3-8.7,3.4c-6.9,2.7-13.9,5.4-20.8,8.1c-0.6,0.2-1,0.2-1.5-0.1
	c-5.4-3.1-10.4-6.7-14.9-11c-0.4-0.4-0.4-0.6,0-1c4.6-4.3,9.6-8,15-11c0.4-0.2,0.8-0.3,1.2-0.1c9.7,3.8,19.4,7.6,29.1,11.4
	C100.4,81.3,100.5,81.4,100.8,81.5z"/>
<path class="st1" d="M156.2,136.1c0.8-1.7,1.6-3.4,2.3-5.1c1.8-4,3.7-8,5.5-12c0.2-0.4,0.4-0.6,0.9-0.6c1.8,0,3.5,0,5.3,0
	c0.5,0,0.7,0.1,0.7,0.7c0,1.2,0,1.2-1.1,1.2c-1.7,0-1.7,0-1.7,1.7c0,6.2,0,12.3,0,18.5c0,0.7,0.2,0.9,0.9,0.8c0.2,0,0.4,0,0.6,0
	c1.5,0,1.5,0,1.4,1.5c0,0.3-0.1,0.4-0.4,0.4c-2.9,0-5.9,0-8.8,0c-0.3,0-0.4-0.1-0.4-0.4c-0.1-1.5-0.1-1.5,1.4-1.5
	c1.4,0,1.4,0,1.4-1.4c0-5,0-9.9,0-14.9c0,0-0.1,0-0.1-0.1c-2.9,6.3-5.7,12.6-8.6,18.9c-3-6.5-6-12.9-9.1-19.3c0,0-0.1,0-0.1,0
	c0,0.3,0,0.7,0,1c0,5,0,9.9,0,14.9c0,0.7,0.2,0.9,0.8,0.8c0.3,0,0.6,0,0.9,0c1.1,0,1.1,0,1.1,1.1c0,0.7-0.2,0.8-0.8,0.8
	c-2.1,0-4.3,0-6.4,0c-0.5,0-0.7-0.1-0.7-0.7c0-1.2,0-1.2,1.3-1.2c1.5,0,1.5,0,1.5-1.5c0-6.3,0-12.5,0-18.8c0-0.6-0.1-0.8-0.7-0.7
	c-0.6,0-1.1,0-1.7,0c-0.3,0-0.4-0.1-0.4-0.4c-0.1-1.4-0.1-1.4,1.3-1.4c1.6,0,3.2,0,4.9,0c0.6,0,0.9,0.2,1.1,0.7
	c2.6,5.6,5.2,11.1,7.8,16.7C156,135.8,156.1,135.9,156.2,136.1z"/>
<path class="st2" d="M68.3,94.2c-1.7,0.7-3.4,1.3-5,2c-8.2,3.2-16.5,6.4-24.7,9.7c-0.2,0.1-0.5,0.4-0.7,0.2c-0.2-0.2,0-0.5,0.1-0.8
	c2.3-5.9,5.6-11.2,9.5-16.2c1.1-1.4,2.3-2.8,3.5-4.1c0.3-0.3,0.4-0.3,0.8-0.1c5,3.8,10.5,6.8,16.3,9.2C68.1,94,68.2,94.1,68.3,94.2z
	"/>
<path class="st3" d="M37.8,57c0.6,0,1.2,0.4,1.8,0.6c9.3,3.6,18.6,7.2,27.9,10.9c0.3,0.1,0.5,0.2,0.9,0.4c-1.2,0.6-2.3,1.1-3.4,1.6
	c-4.6,2.1-9,4.7-13.1,7.8c-0.4,0.3-0.6,0.3-0.9-0.1c-5.4-5.9-9.8-12.4-12.8-19.8C38,57.9,37.8,57.5,37.8,57L37.8,57z"/>
<path class="st1" d="M68.7,130.1c0.8,0.3,1.5,0.5,2.1,0.8c2.6,1.4,3.6,3.6,3.3,6.4c-0.3,2.6-1.8,4.3-4.2,5.2
	c-1.2,0.5-2.4,0.6-3.7,0.6c-3.7,0-7.4,0-11.1,0c-0.6,0-0.7-0.2-0.7-0.7c0-1.2,0-1.2,1.2-1.2c1.6,0,1.6,0,1.6-1.6
	c0-6.2,0-12.5,0-18.7c0-0.6-0.1-0.8-0.8-0.8c-0.3,0-0.7,0-1,0c-1.2,0-0.9,0.2-1-1c0-0.7,0.2-0.9,0.9-0.9c3.9,0.1,7.7-0.1,11.6,0.1
	c2.4,0.1,4.4,1.1,5.5,3.4c1.3,2.8,0.7,6.1-2.6,7.7C69.4,129.8,69.1,129.9,68.7,130.1z M61.3,136.2c0,1.4,0,2.8,0,4.3
	c0,0.2-0.1,0.5,0.3,0.5c1.8-0.1,3.5,0.2,5.2-0.4c1.3-0.5,2.3-1.3,2.7-2.6c1-2.9-0.7-5.9-3.8-6.5c-1.4-0.2-2.7-0.1-4.1-0.1
	c-0.4,0-0.4,0.2-0.4,0.5C61.3,133.3,61.3,134.8,61.3,136.2z M61.3,124.9c0,1.3,0,2.6,0,3.8c0,0.4,0.1,0.5,0.5,0.5c0.9,0,1.8,0,2.7,0
	c2.1-0.1,3.7-1.4,4-3.5c0.5-2.6-0.8-4.7-3.2-5c-1.2-0.2-2.5,0-3.7-0.1c-0.4,0-0.3,0.3-0.3,0.5C61.3,122.4,61.3,123.7,61.3,124.9z"/>
<path class="st1" d="M265.2,131.3c-0.5,5.4-2.9,9.5-8.1,11.5c-7,2.7-14.8-1.9-16.2-9.4c-1.1-6,1.8-11.9,7-14.3
	c7-3.3,15.1,0.8,17,8.5c0.1,0.5,0.2,1.1,0.3,1.6C265.1,129.9,265.1,130.6,265.2,131.3z M260.5,131.6c0-3.4-0.5-5.5-1.5-7.4
	c-2.7-5-9.1-5.2-12.1-0.4c-1,1.6-1.5,3.3-1.7,5.2c-0.3,3,0,5.9,1.7,8.6c2.9,4.7,8.9,4.7,11.8,0.1
	C260.1,135.7,260.5,133.3,260.5,131.6z"/>
<path class="st1" d="M274.2,124.8c0,0.4,0,0.5,0,0.7c0,5.1,0,10.1,0,15.2c0,0.5,0.1,0.8,0.7,0.7c0.4,0,0.7,0,1.1,0
	c0.3,0,0.9-0.2,1,0.1c0.2,0.5,0.1,1.1,0,1.6c0,0.2-0.3,0.2-0.4,0.2c-2.3,0-4.7,0-7,0c-0.3,0-0.5-0.1-0.5-0.4
	c-0.1-1.5-0.1-1.4,1.3-1.4c1.5,0,1.5,0,1.5-1.5c0-5.9,0-11.8,0-17.6c0-1.2-0.7-1.9-1.9-1.9c-0.1,0-0.3,0-0.4,0c-1.2,0-1.2,0-1.2-1.2
	c0-0.5,0.1-0.6,0.6-0.6c1.8,0,3.6,0,5.4,0c0.5,0,0.7,0.3,0.9,0.7c4,5.4,7.9,10.8,11.9,16.2c0.1,0.1,0.2,0.3,0.5,0.4c0-0.5,0-1,0-1.4
	c0-4.4,0-8.8,0-13.3c0-0.6-0.2-0.8-0.7-0.7c-0.5,0-1.1,0-1.6,0c-0.4,0-0.5-0.1-0.5-0.5c-0.1-1.4-0.1-1.4,1.3-1.4c1.9,0,3.8,0,5.7,0
	c0.7,0,1,0.1,0.9,0.9c0,0,0,0.1,0,0.1c0.1,0.7-0.1,1-0.8,0.9c-0.6-0.1-1.4-0.2-1.7,0.1c-0.4,0.4-0.1,1.2-0.1,1.8
	c0,6.9,0,13.8,0,20.7c0,0.6-0.2,0.7-0.7,0.8c-0.9,0.1-1.5-0.3-2-1c-4.2-5.8-8.4-11.6-12.6-17.4C274.5,125.1,274.4,125,274.2,124.8z"
	/>
<path class="st1" d="M97,135.8c0-5.2,0-10.1,0-15.1c0-0.4-0.2-0.5-0.5-0.5c-0.6,0-1.1,0-1.7,0c-0.4,0-0.6-0.1-0.6-0.5
	c0-1.3,0-1.3,1.3-1.3c2,0,4,0,5.9,0c0.5,0,0.7,0.1,0.7,0.6c0,1.2,0,1.2-1.3,1.2c-1.5,0-1.5,0-1.5,1.5c0,7,0,14,0,21
	c0,0.7-0.2,0.8-0.8,0.8c-0.9,0.1-1.4-0.3-1.9-1c-4.1-5.7-8.3-11.5-12.5-17.2c-0.1-0.2-0.3-0.3-0.4-0.5c-0.2,0.1-0.1,0.3-0.1,0.5
	c0,5.1,0,10.2,0,15.2c0,0.6,0.2,0.7,0.7,0.7c0.3,0,0.6,0,0.9,0c0.4,0,0.9-0.2,1.1,0.1c0.3,0.4,0.1,1,0.1,1.6c0,0.3-0.2,0.2-0.4,0.2
	c-2.4,0-4.8,0-7.2,0c-0.3,0-0.4-0.1-0.4-0.4c0,0,0-0.1,0-0.1c0-1.4,0-1.4,1.3-1.4c1.4,0,1.4,0,1.4-1.5c0-5.9,0-11.8,0-17.6
	c0-1.3-0.7-1.9-1.9-1.9c-0.2,0-0.4,0-0.7,0c-0.9,0-0.9,0-1-1c-0.1-0.8,0.2-0.9,0.9-0.9c1.5,0.1,3.1,0.1,4.6,0c0.7,0,1,0.2,1.4,0.7
	c3.9,5.4,7.8,10.7,11.7,16C96.6,135.3,96.8,135.5,97,135.8z"/>
<path class="st1" d="M178.9,130.8c0-3.3,0-6.5,0-9.8c0-0.6-0.2-0.8-0.7-0.7c-0.4,0-0.8,0-1.2,0c-0.7,0.1-0.9-0.2-0.8-0.8
	c0.1-1,0-1,1.1-1c4.4,0,8.8,0,13.3,0c0.5,0,0.7,0,0.8-0.6c0.2-0.9,1-0.2,1.6-0.4c0.3-0.1,0.6-0.1,0.6,0.4c0,1.8,0,3.7,0,5.5
	c0,0,0,0.1,0,0.1c-0.5,0.6-1.1,0.1-1.7,0.3c-0.3,0.1-0.4-0.1-0.4-0.4c0-0.7,0-1.5,0-2.2c0-0.4-0.1-0.5-0.5-0.5c-2.4,0-4.8,0-7.3,0
	c-0.3,0-0.5,0.1-0.5,0.4c0,2.7,0,5.3,0,8c0,0.4,0.1,0.4,0.5,0.4c1.8,0,3.6,0,5.4,0c0.4,0,0.5-0.2,0.5-0.6c0-0.5,0-1,0-1.5
	c-0.1-0.6,0.2-0.7,0.7-0.7c1.5,0,1.5,0,1.5,1.5c0,1.9,0,3.7,0,5.6c0,0.5-0.1,0.7-0.6,0.7c-1.6,0-1.6,0-1.6-1.6c0-1.2,0-1.2-1.2-1.2
	c-1.5,0-3.1,0-4.6,0c-0.4,0-0.6,0.1-0.6,0.6c0,2.7,0,5.5,0,8.2c0,0.4,0.1,0.6,0.6,0.6c2.5,0,4.9,0,7.4,0c0.5,0,0.6-0.1,0.6-0.6
	c0-0.6,0-1.2,0-1.8c0-0.1,0-0.3,0-0.4c0.3-0.9,1-0.3,1.5-0.4c0.3-0.1,0.7-0.2,0.7,0.4c0,1.5,0,3,0,4.5c0,0.6-0.4,0.4-0.7,0.4
	c-4.6,0-9.2,0-13.8,0c-0.9,0-1.8,0-2.8,0c-0.4,0-0.5-0.1-0.5-0.5c0-1.4-0.1-1.4,1.4-1.4c1.4,0,1.4,0,1.4-1.4
	C178.9,136.8,178.9,133.8,178.9,130.8z"/>
<path class="st1" d="M111.1,120.3c1.9,3,3.8,5.8,5.7,8.7c1-1.6,1.9-3.2,2.9-4.7c0.7-1.2,1.4-2.3,2.1-3.5c0.3-0.4,0.1-0.5-0.3-0.5
	c-0.7,0-1.4,0-2,0c-0.4,0-0.5-0.1-0.5-0.5c0-1.3,0-1.3,1.3-1.3c1.9,0,3.9,0,5.8,0c0.6,0,0.8,0.1,0.8,0.7c-0.1,1.1,0,1.2-1.1,1.1
	c-0.7,0-1.1,0.2-1.4,0.8c-2,3.3-4,6.6-6.1,9.9c-0.2,0.4-0.4,0.8-0.4,1.3c0,2.8,0,5.6,0,8.3c0,0.5,0.1,0.7,0.6,0.6c0.3,0,0.7,0,1,0
	c1.2,0,1.1,0,1.2,1.2c0,0.6-0.1,0.7-0.7,0.7c-2.8,0-5.6,0-8.4,0c-0.5,0-0.6-0.1-0.6-0.6c0-1.3,0-1.3,1.3-1.3c1.5,0,1.5,0,1.5-1.5
	c0-2.4,0-4.9,0-7.3c0-0.4-0.1-0.8-0.3-1.2c-2.3-3.4-4.5-6.9-6.7-10.3c-0.4-0.6-0.7-0.8-1.4-0.8c-1.4,0.1-1.5,0-1.3-1.5
	c0-0.3,0.1-0.4,0.4-0.4c3.1,0,6.1,0,9.2,0c0.3,0,0.4,0.1,0.4,0.4c0.1,1.4,0.1,1.4-1.3,1.4C112.2,120.3,111.8,120.3,111.1,120.3z"/>
<path class="st1" d="M202.5,130.8c0-3.3,0-6.6,0-9.9c0-0.5-0.1-0.7-0.6-0.7c-0.5,0-1.1,0-1.6,0c-0.5,0-0.6-0.1-0.6-0.6
	c0-1.3,0-1.3,1.3-1.3c2.5,0,5.1,0,7.6,0c0.6,0,0.9,0.1,0.8,0.8c0,0.1,0,0.2,0,0.3c0.1,0.6-0.1,0.9-0.8,0.8c-0.6,0-1.5-0.3-1.9,0.1
	c-0.3,0.4-0.1,1.2-0.1,1.8c0,6,0,12,0,18.1c0,0.6,0.2,0.7,0.7,0.7c2.2,0,4.4,0,6.7,0c0.6,0,0.7-0.2,0.7-0.7c0-0.7,0-1.4,0-2
	c0-0.3,0.1-0.5,0.4-0.5c1.8-0.1,1.8-0.1,1.8,1.6c0,1.1,0,2.1,0,3.2c0,0.4-0.1,0.6-0.5,0.6c-5.4,0-10.8,0-16.2,0
	c-0.4,0-0.5-0.1-0.5-0.5c0-1.4-0.1-1.4,1.4-1.4c1.4,0,1.4,0,1.4-1.4C202.5,136.8,202.5,133.8,202.5,130.8z"/>
<path class="st1" d="M223.7,130.7c0-3.2,0-6.5,0-9.7c0-0.6-0.2-0.8-0.8-0.7c-0.5,0-1,0-1.4,0c-0.5,0-0.6-0.1-0.6-0.6
	c0-1.3,0-1.3,1.2-1.3c2.6,0,5.2,0,7.8,0c0.5,0,0.7,0.1,0.7,0.7c0,1.2,0,1.2-1.2,1.2c-1.6,0-1.6,0-1.6,1.6c0,6.1,0,12.2,0,18.4
	c0,0.7,0.2,0.8,0.8,0.8c2.2,0,4.4,0,6.5,0c0.6,0,0.8-0.2,0.7-0.8c-0.1-0.6,0-1.2,0-1.8c0-0.1,0-0.3,0-0.4c0.5-0.6,1.1-0.2,1.7-0.3
	c0.3-0.1,0.5-0.1,0.5,0.4c0,1.5,0,3.1,0,4.6c0,0.6-0.4,0.4-0.7,0.4c-4.4,0-8.9,0-13.3,0c-0.9,0-1.8,0-2.8,0c-0.3,0-0.4-0.1-0.5-0.4
	c-0.1-1.5-0.1-1.5,1.3-1.5c1.4,0,1.4,0,1.4-1.4C223.7,136.8,223.7,133.8,223.7,130.7z"/>
<path class="st3" d="M37.8,57C37.8,57,37.8,57,37.8,57C37.8,56.9,37.8,56.9,37.8,57C37.8,56.9,37.8,57,37.8,57
	C37.8,57,37.8,57,37.8,57z"/>
<path class="st4" d="M61.3,136.2c0-1.4,0-2.8,0-4.3c0-0.3,0-0.5,0.4-0.5c1.4,0.1,2.8-0.1,4.1,0.1c3.1,0.6,4.8,3.5,3.8,6.5
	c-0.5,1.3-1.5,2.1-2.7,2.6c-1.7,0.6-3.5,0.3-5.2,0.4c-0.4,0-0.3-0.3-0.3-0.5C61.3,139,61.3,137.6,61.3,136.2z"/>
<path class="st4" d="M61.3,124.9c0-1.3,0-2.5,0-3.8c0-0.2-0.1-0.5,0.3-0.5c1.2,0,2.5-0.1,3.7,0.1c2.4,0.3,3.7,2.4,3.2,5
	c-0.4,2-2,3.4-4,3.5c-0.9,0-1.8,0-2.7,0c-0.4,0-0.5-0.1-0.5-0.5C61.3,127.5,61.3,126.2,61.3,124.9z"/>
<path class="st4" d="M260.5,131.6c0,1.7-0.4,4-1.8,6.2c-3,4.6-9,4.5-11.8-0.1c-1.6-2.6-2-5.6-1.7-8.6c0.2-1.8,0.7-3.6,1.7-5.2
	c3-4.8,9.4-4.6,12.1,0.4C260,126.1,260.5,128.3,260.5,131.6z"/>
</svg>
