<?xml version="1.0" encoding="utf-8"?>
<!-- Generator: Adobe Illustrator 19.0.0, SVG Export Plug-In . SVG Version: 6.00 Build 0)  -->
<svg version="1.1" id="Layer_1" xmlns="http://www.w3.org/2000/svg" xmlns:xlink="http://www.w3.org/1999/xlink" x="0px" y="0px"
	 viewBox="0 0 297.7 305.3" style="enable-background:new 0 0 297.7 305.3;" xml:space="preserve">
<style type="text/css">
	.st0{fill:#FFFFFF;}
	.st1{fill:#080808;}
	.st2{fill:#1D1D1D;}
	.st3{fill:#ECEBEB;}
	.st4{fill:#E22343;}
	.st5{fill:#C72745;}
</style>
<circle id="XMLID_29_" class="st0" cx="148.1" cy="152.2" r="143.7"/>
<g id="XMLID_1_">
	<path id="XMLID_157_" class="st1" d="M270.1,76.4c8.1,13.9,14.5,28.6,18,44.3c6.1,27.4,4.9,54.5-5.1,80.8
		c-18.9,49.6-54.5,81.5-106.3,92.3c-54.1,11.3-100.6-5.2-138-46.1c-17.5-19.2-29-41.9-33.3-67.3C-4,124.3,12.9,77,56.8,40.4
		c28.9-24.1,63-33.9,100.4-31.9c11,0.6,22,2.7,32.9,6.3c-5.7,5.7-11.9,10.6-18.7,14.7c-15.2,9.2-31.7,14.1-49.2,15.8
		c-4.3,0.4-7.6,2.1-9.7,5.9c-3.7,6.5-10.5,6.3-16.6,7c-4.8,0.5-9.6,0.6-14.4-0.6c-2.3-0.6-4.4,0.1-5.7,2c-1.3,1.8,0,3.3,1,4.9
		c2.4,3.8,4.5,7.7,6.8,11.5c0.7,1.2,1.6,2.4-0.1,3.4c-4.7,2.9-8.4,7.1-13.5,9.3c-4.4,1.9-5.8,0.9-5.8-3.9c0-2.4-1.8-1.7-2.7-1.2
		c-8.3,5.1-15.4,11.5-17,21.5c-1.8,11.1-4.7,21.7-10.6,31.2c-3.2,5.3-4.4,11-4.5,17c-0.1,4.3,0,8.7-0.1,13c0,0.9,0.6,2-0.6,2.6
		c-3.6,1.9-3.6,1.9-2.4,6c0.1,0.5,0.1,1,0.4,1.4c12.5,21,22.1,44.1,42.6,59.4c9.8,7.3,20.4,13,31.8,17.1c0.7,0.3,4.1-0.3,1.1,2.2
		c-0.5,0.4-0.2,1,1.6,1.1c4.6,0.4,9.3,0.6,14,1c2.7,0.2,5.7,0.2,3,4.4c-1.5,2.2,0.2,2.7,1.9,2.4c2.9-0.5,5.8-1.3,8.5-2.6
		c3-1.3,6.1-2.7,9.7-2c0.1,3.7-2.3,6.4-3.8,9.7c10.9,0.6,17-8.5,25.8-12c1.3,4.1-1.4,7.3-1.7,11.1c4.1-0.5,6.6-3,9.1-5.6
		c3.7-3.8,7.2-7.8,12-10.4c2.9-1.6,3.7-0.2,3.6,2.1c-0.1,2.9-0.8,5.7-1.3,9c7-1.4,10.9-6,13.6-11.9c2.2-4.7,4.4-9.3,9.4-11.7
		c2.7,4.2,0.8,9.2,3.1,13.7c10.6-6.5,8-19.3,14.3-27.8c4.1,2.2,4.2,6.8,5.9,11c5.6-5.7,5.4-12.7,4.1-19.2c-0.8-4.1,1.1-4.5,3.7-5.2
		c3.3-0.9,5.8,0.7,8.4,2.3c1.5,0.9,3,1.9,4.8,3c1.6-5.3-0.8-9.4-2.7-13.5c-1.8-3.9-3.4-7.9,0.8-10.6c3.8-2.4,7.6-0.2,10.8,2.5
		c0.7,0.6,1.3,1.4,2.1,2.2c2.3-5.6,0.5-10.4-2-14.9c-2.3-4.2-3.6-8.5-3.6-13.3c0-3.7,1-5.6,5.3-3.8c2.9,1.3,5.3,3.3,8,4.9
		c1.7-8.3-1-14.1-10.5-20.8c-3.6-2.6-5.3-5.7-5.9-9.8c-0.5-3.1,0-4.8,3.8-3.8c2.6,0.8,6.6,2.1,7.8,0.1c1.4-2.3-1.4-5.5-2.9-8
		c-1.9-3.1-4.6-5.7-7.7-7.7c-3-1.9-6.1-3.6-9.6-5.7c6.3-2.5,12,0.3,18.2,1.2c-2-5.8-6.1-8.9-10.7-11.2c-4.3-2.1-8.9-3.7-13.8-3.9
		c-2.8-0.1-3.6-2-3.8-3.8c-0.2-2.1,2.1-2.1,3.6-2.3c4.2-0.7,8.2,0,12.3,1.2c-1.9-6.4-8.6-11-17-12.3c-4.4-0.7-9-0.3-13-3
		c-1.7-1.1-3.3-2.2-4.3-4.7c5-0.5,9.8-1,15.7-1.6c-11.6-8.7-25-10.4-38.5-13.7c3.1-1.7,5.3-3,8.5-4.8c-10.5-2-19.7-4.8-28.9-9
		c2.8-3,5.9-4.9,9.3-6.6c9.4-4.9,18.9-9.7,28.2-14.7c2.2-1.2,3.8-1.2,6,0.1C238,38.2,255,53.9,268.2,73.8c0.4,0.5,0.8,1,1.3,1.5
		C269.7,75.7,269.9,76,270.1,76.4z"/>
	<path id="XMLID_154_" class="st2" d="M46.8,151.5c1.4-35.2,19.3-59.7,50.2-75.1c38.8-19.3,86.8-10.4,116.7,20.9
		c28.7,30,28.8,78.7,0.2,108.8c-23.4,24.6-52.4,34.5-85.7,30.2c-35.4-4.6-61.8-22.4-76.1-56C48.2,171.1,46.6,161.5,46.8,151.5z
		 M140.1,234.2c18.8-0.4,35.6-4.7,51.1-13.9c48.8-29.2,54.6-93.7,11.6-128.6c-35.8-29-85.5-29.5-121.8-1.2
		c-32.9,25.5-40.3,71.3-16.4,105C83,221.6,109.5,233,140.1,234.2z"/>
	<path id="XMLID_153_" class="st1" d="M210.4,23c-15.6,7.2-30.8,13.9-47.1,17.7c4.2-2.8,8.4-5.7,12.7-8.5
		c5.9-3.8,11.2-8.4,14.8-14.5c1.4-2.5,2.8-2.1,4.7-1.4C200.3,18.4,205.3,20,210.4,23z"/>
	<path id="XMLID_151_" class="st3" d="M270.1,76.4c-0.2-0.4-0.5-0.7-0.7-1.1C269.7,75.7,269.9,76,270.1,76.4z"/>
	<path id="XMLID_148_" class="st3" d="M140.1,234.2c-30.6-1.2-57.1-12.6-75.7-38.7c-23.9-33.6-16.4-79.4,16.4-105
		c36.4-28.3,86.1-27.8,121.8,1.2c43,34.9,37.2,99.4-11.6,128.6C175.7,229.5,158.8,233.7,140.1,234.2z M141.3,229.4
		c16.3,0.2,31.5-3.7,45.6-11.9c51.2-29.6,53.8-94.8,5-128.2c-35.1-24.1-86-19-115.6,11.5c-25.3,26.2-28.5,64.7-7,93.7
		C87.2,218.4,111.8,229.3,141.3,229.4z"/>
	<path id="XMLID_145_" class="st1" d="M141.3,229.4c-29.6-0.2-54.2-11-71.9-34.9c-21.6-29-18.4-67.5,7-93.7
		C106,70.3,156.8,65.2,192,89.3c48.7,33.4,46.2,98.7-5,128.2C172.8,225.7,157.6,229.6,141.3,229.4z M176.5,142.6l-0.3,0L176.5,142.6
		c0.3-0.4,0.5-0.9,0.8-1.3c3.6-5.4,2.6-9.1-3.4-10.9c-6.5-2-13.1-3.5-19.6-5.2c-2.4-1.6-5.2-1.8-8-2.4c-0.5-0.2-0.9-0.3-1.4-0.5
		c-0.7-1-1.7-1-2.7-0.8c-0.7-0.1-1.4-0.2-2-0.3c-1.1-1.1-2.6-1.3-4.1-1.5c-0.6-0.1-1.3-0.3-1.9-0.4c-1.5-1-3.2-1.6-5-1.5
		c-0.7-0.2-1.3-0.3-2-0.5c-0.6-0.1-1.2-0.3-1.8-0.4c0,0,0,0,0,0c-0.4-1.8-4.1-0.4-3.3-3.4c1-0.2,2.1-0.5,3.1-0.7
		c1.1,0.2,1.9-0.4,2.5-1.3l0.3,0l0.2-0.2c1.2,0,2.3-0.1,3.1-1.1c1.7-0.7,3.5-1.3,5.2-2l0.2,0.2l0-0.3c6.9-2.7,13.9-5.3,20.8-8.2
		c6.7-2.8,7.9-6,5.8-12.9c-0.7-2.5-1.5-3.7-3.8-1.3c-4.7,5-10.8,8.2-16.5,11.9c-6.6,4.3-13.8,7.6-19.8,12.9
		c-3.3,0.3-5.7,3.6-9.4,2.7c-0.6-0.2-2.3-0.6-2,1.1c0.2,1.1-0.2,3.2,1.8,2.9c3.9-0.6,7,1.6,10.5,2.4l0.4,0.1
		c0.6,0.9,1.5,1.5,2.7,1.4c0.5,0.2,0.9,0.3,1.4,0.5c1.1,1.7,3,1.6,4.6,2.4c1.3,1.3,4,0.8,4.1,3.7c0.2,6.4,2.7,12.3,4.8,18.2
		c1.5,4.2,0.9,6.1-3.7,7.4c-8,2.2-15.9,4.9-23.6,7.8c-6.9,2.6-9.9,7.7-9.5,14.7c0.1,1.1-0.4,2.5,0.8,3.2c1.3,0.7,2.1-0.5,3-1.2
		c6.2-4.9,13.3-8.1,20.2-11.9c2.2-1.2,3.6-1.3,4,1.9c1.6,13.8,3.4,27.6,5.1,41.4c-0.2,2.8,0.4,5.5,2.5,9c0-14.4,0-27.6,0-40.8
		c0.2-3.3,0.1-6.5,0.5-9.8c0.6-4.2,0.2-9.1,5.8-10.7c1-0.1,1.8-0.6,2.5-1.4c0.2,0.1,0.4,0,0.6-0.2c2.5,0,4.2-1.6,6-3l0,0
		c0.5-0.3,0.9-0.5,1.4-0.8l0.3,0l0.3-0.2c0.5-0.3,1-0.5,1.5-0.8l0.3,0l0.2-0.2c0.5-0.3,1-0.6,1.5-0.8c0.2,0.1,0.4,0,0.5-0.2
		c0.5-0.3,1-0.6,1.5-0.8c0.2,0,0.4,0,0.5-0.3c0.4-0.2,0.8-0.5,1.3-0.7c0,0,0.1,0,0.1,0c3-2.2,7.9,0.5,10.1-3.9l0,0
		C175.8,143.3,176.2,142.9,176.5,142.6z"/>
	<path id="XMLID_144_" class="st4" d="M154.3,125.2c6.5,1.7,13.2,3.2,19.6,5.2c6,1.8,7,5.5,3.4,10.9c-0.3,0.4-0.5,0.8-0.8,1.2
		l-0.3,0c0,0,0.3,0,0.3,0c-0.7,0-1,0.3-1,1c0,0,0,0,0,0c-2.5-0.6-5,4.4-7.4-0.2c0-0.2,0.1-0.3,0.3-0.4c1-1.7-0.2-1.7-1.4-1.7
		c-1.5-0.3-2.7-1.1-3.8-2.2c-0.2-1.4-0.9-2.1-2.4-1.4l0-0.1c-0.2-1.8-1.6-1.3-2.7-1.3l0,0c-2.4-2.6-4-6.9-8.9-4.9
		c-0.9,0.3-1,1.1-1.2,1.8c-1.2,5.3-1.6,10.7,0.3,15.9c1.2-0.1,2.5-0.1,3.7-0.2c2.4,0.4,4.7,0.2,6.3-2l0.2-0.2l0.3,0
		c0.5-0.2,1-0.4,1.5-0.6c0.5-0.1,1-0.3,1.5-0.4c0.5-0.2,1-0.3,1.5-0.5c0.6-0.1,1.3-0.3,1.9-0.4c0.1,0.8,0.2,1.6,0.4,2.5
		c0,0-0.1,0-0.1-0.1c-0.4,0.2-0.8,0.5-1.3,0.7c-0.1,0.2-0.3,0.3-0.5,0.3c-0.5,0.3-1,0.6-1.5,0.8c-0.1,0.2-0.3,0.2-0.5,0.2
		c-0.5,0.3-1,0.6-1.5,0.8l-0.2,0.2c0,0-0.3,0-0.3,0c-0.5,0.3-1,0.5-1.5,0.8l-0.3,0.2c0,0-0.3,0-0.3,0c-0.5,0.3-0.9,0.5-1.4,0.8
		c0,0,0,0,0,0c-2.6-0.2-4.3,1.5-6,3c-0.1,0.2-0.3,0.3-0.6,0.2c-1.2-0.3-2.2,0-2.5,1.4c-5.6,1.6-5.2,6.5-5.8,10.7
		c-0.5,3.2-0.4,6.5-0.5,9.8c-1.4,9.1-0.3,18.3-0.7,27.5c-0.1,1.6,1,3.8-1.8,4.4c-1.7-13.8-3.4-27.6-5.1-41.4c-0.4-3.1-1.8-3.1-4-1.9
		c-6.8,3.7-14,7-20.2,11.9c-0.9,0.7-1.7,1.9-3,1.2c-1.2-0.7-0.8-2.1-0.8-3.2c-0.5-7,2.6-12.1,9.5-14.7c7.8-2.9,15.6-5.7,23.6-7.8
		c4.7-1.3,5.2-3.2,3.7-7.4c-2.1-5.9-4.6-11.8-4.8-18.2c-0.1-2.9-2.8-2.4-4.1-3.7c-0.1-3.6-2.8-2.1-4.6-2.4c-0.5-0.2-0.9-0.3-1.4-0.5
		c-0.3-1.6-1.3-1.9-2.7-1.4c0,0-0.4-0.1-0.4-0.1c-0.5-1.4-0.4-2.4,1.3-2.7c0,0,0,0,0,0c0.3,1.4,0.9,1.3,1.8,0.4
		c0.7,0.2,1.3,0.3,2,0.5c1.3,1.8,2.9,2.7,5,1.5c0.6,0.1,1.3,0.3,1.9,0.4c1,1.5,1.9,3.1,4.1,1.5c0.7,0.1,1.4,0.2,2,0.3
		c0.7,0.9,1.7,0.8,2.7,0.8c0.5,0.2,0.9,0.3,1.4,0.5C148.4,125.4,151.3,125.4,154.3,125.2z"/>
	<path id="XMLID_143_" class="st4" d="M128.2,111.4l-0.2,0.2c0,0-0.3,0-0.3,0c-1.1-0.2-1.9,0.4-2.5,1.3c-1,0.2-2.1,0.5-3.1,0.7
		c0.3-1,0.7-2,1-3c6-5.3,13.2-8.6,19.8-12.9c5.7-3.7,11.8-6.9,16.5-11.9c2.3-2.4,3.1-1.2,3.8,1.3c2.1,6.9,0.9,10.1-5.8,12.9
		c-6.9,2.9-13.9,5.5-20.8,8.2c0,0-0.2,0.1-0.2,0.1c-1.7,0.7-3.5,1.3-5.2,2C130.1,110.3,128.9,110.1,128.2,111.4z"/>
	<path id="XMLID_142_" class="st5" d="M123.1,110.6c-0.3,1-0.7,2-1,3c-0.8,3,2.8,1.6,3.3,3.4c-1.7,0.3-1.8,1.3-1.3,2.7
		c-3.5-0.8-6.6-3-10.5-2.4c-2,0.3-1.6-1.8-1.8-2.9c-0.3-1.6,1.4-1.2,2-1.1C117.4,114.2,119.8,110.9,123.1,110.6z"/>
	<path id="XMLID_141_" class="st5" d="M138.3,209.2c2.8-0.5,1.7-2.8,1.8-4.4c0.4-9.2-0.8-18.4,0.7-27.5c0,13.2,0,26.4,0,40.8
		C138.7,214.7,138.1,212.1,138.3,209.2z"/>
	<path id="XMLID_140_" class="st5" d="M168.1,143.5c2.4,4.6,4.9-0.5,7.4,0.2c-2.1,4.4-7.1,1.7-10.1,3.9c-0.1-0.8-0.2-1.6-0.4-2.5
		C166.1,144.6,167.1,144,168.1,143.5z"/>
	<path id="XMLID_139_" class="st5" d="M154.3,125.2c-2.9,0.2-5.8,0.2-8-2.4C149,123.4,151.9,123.6,154.3,125.2z"/>
	<path id="XMLID_138_" class="st5" d="M134.2,119.3c-2.2,1.2-3.7,0.3-5-1.5C131,117.7,132.6,118.3,134.2,119.3z"/>
	<path id="XMLID_137_" class="st5" d="M150.2,155.3c1.7-1.6,3.4-3.3,6-3C154.3,153.7,152.7,155.3,150.2,155.3z"/>
	<path id="XMLID_136_" class="st5" d="M128.6,121.6c1.8,0.3,4.5-1.2,4.6,2.4C131.6,123.2,129.7,123.3,128.6,121.6z"/>
	<path id="XMLID_135_" class="st5" d="M140.2,121.3c-2.1,1.6-3.1,0-4.1-1.5C137.6,119.9,139,120.2,140.2,121.3z"/>
	<path id="XMLID_134_" class="st5" d="M124.5,119.7c1.4-0.5,2.4-0.2,2.7,1.4C126,121.2,125.2,120.7,124.5,119.7z"/>
	<path id="XMLID_133_" class="st5" d="M144.9,122.4c-1,0-2,0.1-2.7-0.8C143.2,121.4,144.2,121.3,144.9,122.4z"/>
	<path id="XMLID_132_" class="st5" d="M125.2,112.8c0.6-0.9,1.3-1.4,2.5-1.3C127.1,112.5,126.4,113,125.2,112.8z"/>
	<path id="XMLID_131_" class="st5" d="M128.2,111.4c0.7-1.3,1.9-1.2,3.1-1.1C130.4,111.3,129.3,111.4,128.2,111.4z"/>
	<path id="XMLID_130_" class="st5" d="M147.1,156.9c0.3-1.4,1.2-1.7,2.5-1.4C149,156.3,148.2,156.8,147.1,156.9z"/>
	<path id="XMLID_129_" class="st5" d="M127.2,117.4c-0.8,0.9-1.5,0.9-1.8-0.4C126,117.1,126.6,117.2,127.2,117.4z"/>
	<path id="XMLID_128_" class="st5" d="M176.5,142.6c0.3-0.4,0.5-0.8,0.8-1.2C177,141.7,176.8,142.2,176.5,142.6z"/>
	<path id="XMLID_127_" class="st5" d="M175.5,143.6c0-0.7,0.3-1,1-1C176.2,142.9,175.8,143.3,175.5,143.6z"/>
	<path id="XMLID_126_" class="st5" d="M164.1,148.2c0.4-0.2,0.8-0.5,1.3-0.7C165,147.8,164.6,148,164.1,148.2z"/>
	<path id="XMLID_125_" class="st5" d="M162.2,149.3c0.5-0.3,1-0.6,1.5-0.8C163.1,148.7,162.6,149,162.2,149.3z"/>
	<path id="XMLID_124_" class="st5" d="M160.1,150.3c0.5-0.3,1-0.6,1.5-0.8C161.1,149.8,160.6,150.1,160.1,150.3z"/>
	<path id="XMLID_123_" class="st5" d="M156.2,152.3c0.5-0.3,0.9-0.5,1.4-0.8C157.1,151.7,156.6,152,156.2,152.3z"/>
	<polygon id="XMLID_122_" class="st5" points="136.4,108.3 136.6,108.2 136.6,108.5 	"/>
	<path id="XMLID_121_" class="st5" d="M158.2,151.3c0.5-0.3,1-0.5,1.5-0.8C159.2,150.8,158.7,151,158.2,151.3z"/>
	<path id="XMLID_120_" class="st2" d="M168.1,143.5c-1,0.5-2,1.1-3,1.6c-0.6,0.1-1.3,0.3-1.9,0.4c-0.5,0.2-1,0.3-1.5,0.5
		c-0.5,0.1-1,0.3-1.5,0.4c-0.5,0.2-1,0.4-1.5,0.6l-0.3,0c0,0-0.2,0.2-0.2,0.2c-2.3,0.1-4.4,0.5-6.3,2c-1.2,0.1-2.5,0.1-3.7,0.2
		c-0.1-5.3-0.2-10.6-0.3-15.9c0.2-0.7,0.3-1.6,1.2-1.8c3,1.6,5.9,3.3,8.9,4.9c0,0,0,0,0,0c0.6,1,1.6,1.2,2.7,1.3c0,0,0,0.1,0,0.1
		c0.4,1.1,1.3,1.4,2.4,1.4c1.1,1,2.3,1.8,3.8,2.2c0.5,0.6,0.9,1.1,1.4,1.7C168.2,143.2,168.1,143.3,168.1,143.5z"/>
	<path id="XMLID_119_" class="st5" d="M158.1,136.4c-3-1.6-5.9-3.3-8.9-4.9C154.1,129.6,155.6,133.8,158.1,136.4z"/>
	<path id="XMLID_118_" class="st5" d="M147.9,133.3c0.1,5.3,0.2,10.6,0.3,15.9C146.4,144,146.7,138.6,147.9,133.3z"/>
	<path id="XMLID_117_" class="st5" d="M151.9,149.1c1.9-1.4,4-1.9,6.3-2C156.5,149.3,154.3,149.5,151.9,149.1z"/>
	<path id="XMLID_116_" class="st5" d="M163.2,139.2c-1.1,0-1.9-0.4-2.4-1.4C162.3,137.2,163,137.8,163.2,139.2z"/>
	<path id="XMLID_115_" class="st5" d="M160.8,137.7c-1.1-0.1-2.1-0.3-2.7-1.3C159.2,136.4,160.6,135.9,160.8,137.7z"/>
	<path id="XMLID_114_" class="st5" d="M168.4,143.1c-0.5-0.6-0.9-1.2-1.4-1.7C168.2,141.4,169.4,141.4,168.4,143.1z"/>
	<path id="XMLID_113_" class="st5" d="M161.7,146c0.5-0.2,1-0.3,1.5-0.5C162.7,145.7,162.2,145.8,161.7,146z"/>
	<path id="XMLID_112_" class="st5" d="M158.7,147c0.5-0.2,1-0.4,1.5-0.6C159.7,146.6,159.2,146.8,158.7,147z"/>
</g>
</svg>
