<?xml version="1.0" encoding="utf-8"?>
<!-- Generator: Adobe Illustrator 19.0.0, SVG Export Plug-In . SVG Version: 6.00 Build 0)  -->
<svg version="1.1" id="Layer_1" xmlns="http://www.w3.org/2000/svg" xmlns:xlink="http://www.w3.org/1999/xlink" x="0px" y="0px"
	 viewBox="0 0 330 200" style="enable-background:new 0 0 330 200;" xml:space="preserve">
<style type="text/css">
	.st0{fill:#FBFCFD;}
	.st1{fill:#FBFBFC;}
	.st2{fill:#FCFCFD;}
	.st3{fill:#E1E6F1;}
	.st4{fill:#6883B9;}
	.st5{fill:#4F6FAE;}
</style>
<path class="st0" d="M162.9,101.4c0-6.8,0-13.5,0-20.3c0-1.2,0.3-1.7,1.5-1.8c2.3-0.3,4.6-0.7,6.9-1.2c1.1-0.2,1.4,0.1,1.4,1.2
	c-0.1,4,0,8,0,11.9c0,1.5,0.3,1.9,1.8,1.5c3.2-0.9,6.5-0.9,9.8-0.3c4.1,0.7,6.4,3.1,6.8,7.2c0.5,4.8,0.6,9.7,0.1,14.6
	c-0.6,6-3.6,9-9.6,10c-5.9,1-11.8,0.3-17.7-0.7c-1.2-0.2-0.9-1-0.9-1.7C162.9,115,162.9,108.2,162.9,101.4z M172.6,108.9
	c0,1.6,0,3.2,0,4.7c0,3.1,0,3.1,3.2,3c0.3,0,0.6,0,0.9,0c3.6-0.4,4.7-1.6,4.7-5.3c0-2.1,0-4.3,0-6.4c0-3.7-1.4-4.9-5-4.6
	c-1,0.1-1.8,0.5-2.7,0.7c-0.9,0.3-1.1,0.8-1.1,1.7C172.7,104.8,172.6,106.9,172.6,108.9z"/>
<path class="st0" d="M266.5,105.8c2.5-4,5.1-8,7.6-12c0.6-1,1.3-1.4,2.4-1.3c2.4,0.1,4.8,0,7.2,0c0.5,0,1.1-0.3,1.4,0.2
	c0.3,0.5-0.2,0.9-0.5,1.3c-2.6,4.2-5.2,8.4-7.9,12.5c-0.7,1.1-0.7,1.8,0,2.9c2.7,4.3,5.2,8.8,7.9,13.1c0.9,1.5,0.5,1.8-1,1.7
	c-2.3-0.1-4.7-0.1-7,0c-1.2,0.1-1.9-0.3-2.6-1.4c-2.3-3.9-4.7-7.8-7-11.7c-0.2-0.3-0.3-0.5-0.9-1.2c0,3.9,0,7.3,0,10.7
	c0,3.7,0,3.7-3.6,3.7c-1.6,0-3.3,0-4.9,0c-1,0-1.4-0.3-1.3-1.3c0.1-1.1,0-2.3,0-3.4c0-12.7,0-25.4,0-38.1c0-1.4,0.3-2,1.8-2.2
	c2.2-0.2,4.4-0.6,6.5-1.1c1.3-0.3,1.6,0.1,1.6,1.4c0,8.2,0,16.4,0,24.7c0,0.5,0,1,0,1.5C266.2,105.7,266.3,105.7,266.5,105.8z"/>
<path class="st1" d="M150.7,111.3c-2.5,0-4.9,0.1-7.4,0c-1.3,0-1.5,0.5-1.4,1.6c0.2,2.2,1.2,3.3,3.5,3.4c3.8,0.3,7.6,0.1,11.3-0.6
	c1.7-0.3,2.3,0.1,2.1,1.8c-0.1,1.4-0.1,2.8,0,4.2c0.1,1.3-0.3,1.9-1.7,2.1c-4.9,0.8-9.8,1.3-14.7,0.5c-6.3-1-10-5.1-10.4-11.4
	c-0.2-3-0.1-6.1,0-9.1c0.2-7.8,5-11,11-11.6c2.9-0.3,5.8-0.2,8.6,0.6c4.5,1.3,7.3,4.6,7.8,9.2c0.3,2.6,0.2,5.3,0.2,8
	c0,1.1-0.4,1.4-1.5,1.4C155.8,111.3,153.2,111.3,150.7,111.3z M145.7,104.6c0.8,0,1.7-0.1,2.5,0c1.4,0.2,1.8-0.4,1.6-1.7
	c-0.1-1.5-0.7-2.8-2.2-3.2c-1.7-0.4-3.6-0.6-4.9,1c-0.8,1-1,2.3-0.6,3.4c0.4,1,1.6,0.3,2.4,0.5C144.8,104.7,145.3,104.6,145.7,104.6
	z"/>
<path class="st2" d="M194.1,108.2c0-1.8-0.1-3.5,0-5.3c0.4-5.2,3.4-8.8,8.5-10.1c3.7-0.9,7.4-1,11.1,0c5.1,1.3,7.9,4.3,8.5,9.6
	c0.5,4,0.5,8,0,11.9c-0.7,5.4-3.5,8.5-8.8,9.8c-3.5,0.8-7,0.8-10.5-0.1c-5.4-1.3-8.4-4.9-8.8-10.5C194,111.7,194,110,194.1,108.2
	C194.1,108.2,194.1,108.2,194.1,108.2z M203.9,108.3c0,1.5,0,2.9,0,4.4c0.1,2.4,1.4,3.7,4,3.8c2.7,0.1,4.5-1.1,4.6-3.4
	c0.2-3.2,0.2-6.3,0-9.5c-0.1-2.3-2-3.5-4.9-3.3c-2.4,0.1-3.7,1.4-3.8,3.8C203.8,105.5,203.9,106.9,203.9,108.3z"/>
<path class="st2" d="M253.6,107.8c0,2.6,0.1,4.8-0.3,6.9c-0.8,4.7-3.4,7.8-8,9.1c-3.7,1-7.5,1-11.2,0.2c-4.9-1.1-8-4.1-8.7-9.1
	c-0.6-4.3-0.6-8.7,0-13c0.7-5.1,3.8-8.1,8.8-9.2c3.5-0.8,7-0.8,10.5,0.1c5.2,1.3,7.9,4.3,8.7,9.7
	C253.6,104.4,253.5,106.3,253.6,107.8z M235,108.2c0,1.5,0,2.9,0,4.4c0,2.5,1.3,3.7,3.9,3.8c2.8,0.1,4.6-1.1,4.7-3.5
	c0.1-3.1,0.1-6.2,0-9.3c-0.1-2.4-1.9-3.5-4.8-3.4c-2.5,0.1-3.8,1.4-3.8,3.7C234.9,105.5,235,106.8,235,108.2z"/>
<path class="st0" d="M101.8,113.1c0,3.2-0.1,6.4,0,9.7c0,1.3-0.4,1.6-1.6,1.6c-1.6-0.1-3.3,0-4.9,0c-0.9,0-1.9,0.2-2-1.3
	c-0.1-1-0.9-0.3-1.3-0.1c-2.7,1.2-5.5,1.8-8.5,1.7c-3.5-0.1-6.3-1.6-7.7-4.9c-1.5-3.6-1.6-7.3,0.9-10.6c1.4-1.9,3.6-2.5,5.9-2.6
	c2.3-0.2,4.7-0.1,7-0.3c0.8-0.1,2.1,0.7,2.3-0.8c0.1-1.5,0.4-3.3-1.5-4.1c-0.9-0.4-1.8-0.5-2.8-0.5c-2.6,0-5.2,0-7.8,0
	c-1.2,0-1.7-0.2-1.5-1.5c0.3-1.8,0.4-3.6,0.5-5.5c0.1-0.7,0.2-1.4,1.2-1.3c4.9,0.1,9.7-0.4,14.5,0.7c4.2,0.9,6.4,3.3,6.9,7.6
	c0.1,0.9,0.3,1.8,0.3,2.6C101.8,106.6,101.7,109.9,101.8,113.1C101.8,113.1,101.8,113.1,101.8,113.1z M88.8,112.9c-0.5,0-1,0-1.5,0
	c-1.5,0-2.6,0.3-2.6,2.2c0,1.6,0.9,2.5,2.6,2.6c1.1,0,2.2-0.3,3.3-0.7c1.9-0.6,1.3-2.1,1.2-3.3c-0.1-1.3-1.2-0.6-1.9-0.8
	C89.6,112.8,89.2,112.9,88.8,112.9z"/>
<path class="st0" d="M58.6,112.3c0-3.4,0-6.7,0-10.1c0-1.1-0.2-1.5-1.4-1.5c-3.4,0-3.4-0.1-3.4-3.5c0-0.3,0-0.5,0-0.8
	c0.1-1.3-0.5-2.8,0.3-3.7c0.7-0.9,2.3-0.3,3.4-0.3c1,0,1.2-0.4,1.1-1.3c0-2-0.1-4,0.2-6.1c0.7-4.9,3.5-7.6,8.4-7.9
	c2.5-0.2,4.9,0,7.4-0.1c0.9,0,1.3,0.3,1.2,1.2c0,1.9-0.1,3.8,0,5.7c0,1.1-0.5,1.3-1.4,1.2c-1.3,0-2.6,0.1-4,0.2
	c-1.2,0.1-1.9,0.8-1.9,2c-0.1,1.4-0.1,2.8-0.1,4.2c0,0.8,0.5,0.9,1.1,0.9c1.6,0,3.3,0.1,4.9,0c1,0,1.3,0.3,1.2,1.3
	c-0.2,1.1-0.2,2.3-0.4,3.4c-0.4,3.6-0.5,3.6-4.2,3.6c-2.7,0-2.7,0-2.7,2.7c0,6.4,0,12.8,0,19.2c0,1.2-0.3,1.7-1.6,1.6
	c-2.3-0.1-4.6-0.1-6.8,0c-1.2,0-1.5-0.3-1.5-1.5C58.7,119.3,58.6,115.8,58.6,112.3z"/>
<path class="st2" d="M105,108.2c0-1.7-0.2-3.4,0-5.1c0.9-6.8,5.4-10.7,12.8-11c3.4-0.2,6.8,0.3,10.2,0.9c1,0.2,1.4,0.6,1.3,1.6
	c-0.1,1.7-0.1,3.4,0,5.1c0.1,1.4-0.6,1.6-1.7,1.3c-2.7-0.6-5.5-0.9-8.3-0.8c-3.4,0.1-4.5,1.1-4.6,4.6c0,2.6,0,5.2,0.1,7.8
	c0.1,2.4,1.2,3.4,3.5,3.6c3.1,0.3,6.2,0,9.2-0.7c1.3-0.3,1.9,0,1.8,1.4c-0.1,1.7-0.1,3.4,0,5.1c0,0.8-0.1,1.2-1,1.4
	c-4.5,0.9-9,1.5-13.5,0.6c-5.9-1.2-9.4-5.3-9.7-11.4C104.8,111.3,104.9,109.7,105,108.2C104.9,108.2,104.9,108.2,105,108.2z"/>
<path class="st3" d="M291,124.7c-1.8,0-3.2-1.3-3.2-3c0-1.7,1.3-3.1,3.1-3.1c1.7,0,3,1.2,3,2.9C294,123.3,292.8,124.6,291,124.7z
	 M289.7,123.5c0.6,0.6,1.3,0.6,2.2,0.3c-0.3-0.6-0.3-1.4-1.1-1.8C290.3,122.5,290.7,123.6,289.7,123.5c0-1.1,0-2.2,0-3.4
	c3.4-1.1,1.5,2.4,2.8,3.2c0.9-1.4,1-2.5,0.1-3.4c-0.9-0.9-1.9-1.2-3-0.2C288.2,121.2,288.2,122,289.7,123.5z"/>
<path class="st4" d="M289.7,119.7c1.1-1,2.1-0.6,3,0.2c0.9,0.9,0.8,2-0.1,3.4c-1.3-0.8,0.6-4.3-2.8-3.2
	C289.7,120,289.7,119.9,289.7,119.7z"/>
<path class="st5" d="M289.7,119.7c0,0.1,0,0.3,0,0.4c0,1.1,0,2.3-0.1,3.4l0,0C288.2,122,288.2,121.2,289.7,119.7z"/>
<path class="st5" d="M289.7,123.6c1.1,0,0.6-1,1.1-1.5c0.8,0.4,0.8,1.2,1.1,1.8C291,124.1,290.3,124.2,289.7,123.6
	C289.7,123.5,289.7,123.6,289.7,123.6z"/>
</svg>
