<svg id="Layer_1" data-name="Layer 1" xmlns="http://www.w3.org/2000/svg" viewBox="0 0 276.91 107.78"><path d="M241.42,43.29H221l-5,5v24l5,5h20.4l5-5.1V48.39Zm-3,25.23a1.69,1.69,0,0,1-1.74,1.75H225.78A1.69,1.69,0,0,1,224,68.52V52.08a1.69,1.69,0,0,1,1.74-1.75h10.88a1.69,1.69,0,0,1,1.74,1.75Zm-36,1.08a1.75,1.75,0,0,1-1.41.67H189.27a1.7,1.7,0,0,1-1.75-1.75V63.36h22.42v-15l-5-5.1H184.5l-5,5v24l5,5H205l5.84-5.84-5.23-5.1ZM187.52,52.08a1.7,1.7,0,0,1,1.75-1.75h10.87a1.7,1.7,0,0,1,1.75,1.75v4.7H187.52ZM173.43,30.47H165.1V43.29H148l-5,5v24l5,5h20.4l5-5.1Zm-8.06,38.05a1.69,1.69,0,0,1-1.74,1.75H152.75A1.69,1.69,0,0,1,151,68.52V52.08a1.69,1.69,0,0,1,1.74-1.75h10.88a1.69,1.69,0,0,1,1.74,1.75ZM124.43,43.29h12.48v34h-8V51.88a1.39,1.39,0,0,0-1.55-1.55h-2.88Zm4.29-4.9h8.33V30.47h-8.33ZM101.07,50.33h10.47A1.75,1.75,0,0,1,113,51l2.82,2.81,5.3-5.1-5.44-5.43H96.5l-5,5v9c0,2.21,1.28,4,4.5,4.49l15.7,2.75c.68.14,1.08.47,1.08,1.21v2.75A1.7,1.7,0,0,1,111,70.27H100.73a1.75,1.75,0,0,1-1.41-.67L96.1,66.51l-5.3,5,5.84,5.84h18.93l5-5V62.62c0-2.22-1.27-4-4.5-4.5l-15.7-2.75a1.14,1.14,0,0,1-1.08-1.21V52.08A1.7,1.7,0,0,1,101.07,50.33ZM78.18,69.6a1.74,1.74,0,0,1-1.41.67H65.09a1.69,1.69,0,0,1-1.74-1.75V63.36H85.76v-15l-5-5.1H60.33l-5,5v24l5,5H80.8l5.84-5.84-5.24-5.1ZM63.35,52.08a1.69,1.69,0,0,1,1.74-1.75H76a1.69,1.69,0,0,1,1.74,1.75v4.7H63.35ZM30.46,48.32v29h8V52.08a1.7,1.7,0,0,1,1.75-1.75H50.59v-7H35.49Z"/></svg>