<?xml version="1.0" encoding="utf-8"?>
<!-- Generator: Adobe Illustrator 16.0.0, SVG Export Plug-In . SVG Version: 6.00 Build 0)  -->
<!DOCTYPE svg PUBLIC "-//W3C//DTD SVG 1.1//EN" "http://www.w3.org/Graphics/SVG/1.1/DTD/svg11.dtd">
<svg version="1.1" id="Layer_1" xmlns="http://www.w3.org/2000/svg" xmlns:xlink="http://www.w3.org/1999/xlink" x="0px" y="0px"
	 width="170.079px" height="184.252px" viewBox="0 0 170.079 184.252" enable-background="new 0 0 170.079 184.252"
	 xml:space="preserve">
<g>
	<g>
		<path fill="#DD3E3E" d="M109.924,0c-17.27,0-31.363,13.786-31.75,30.877h-0.027c0.01,0.239,0.019,0.478,0.019,0.718
			c0,10.154-8.303,18.415-18.509,18.415c-10.205,0-18.509-8.26-18.509-18.415c0-10.153,8.304-18.414,18.509-18.414
			c6.592,0,12.386,3.449,15.666,8.625c1.342-4.691,3.623-8.993,6.629-12.688C76.213,3.484,68.337,0,59.656,0
			C42.145,0,27.899,14.174,27.899,31.596c0,17.423,14.245,31.597,31.757,31.597s31.758-14.174,31.758-31.597
			c0-0.239-0.004-0.479-0.009-0.718h0.027c0.381-9.821,8.528-17.696,18.491-17.696c10.205,0,18.508,8.261,18.508,18.414
			c0,10.154-8.303,18.415-18.508,18.415c-6.707,0-12.591-3.566-15.838-8.893c-1.323,4.731-3.608,9.067-6.631,12.788
			c5.752,5.735,13.701,9.288,22.469,9.288c17.511,0,31.757-14.174,31.757-31.597C141.681,14.174,127.435,0,109.924,0z"/>
		<path fill="#151515" d="M139.291,51.824c-0.002,0.003-0.003,0.005-0.006,0.008c-3.434,4.917-8.081,8.933-13.508,11.618
			c-4.78,2.364-10.163,3.697-15.854,3.697c-8.571,0-16.686-2.993-23.146-8.483v15.477c7.074,4.07,14.466,6.127,22.099,6.127
			c0.325,0,0.649-0.003,0.976-0.011c3.237-0.074,6.303-0.52,9.171-1.212c-0.896,1.55-1.854,3.083-2.87,4.599
			c-2.072,0.328-4.149,0.52-6.21,0.566c-0.355,0.008-0.71,0.012-1.066,0.012c-4.246,0-8.436-0.588-12.542-1.749
			c-1.924-0.483-3.819-1.132-5.683-1.994c-1.302-0.548-2.594-1.163-3.874-1.831v15.04c6.528,3.061,12.812,3.41,18.435,3.3
			c-5.813,5.928-12.645,11.491-20.422,16.618c-7.778-5.127-14.61-10.69-20.423-16.618c5.624,0.11,11.907-0.239,18.435-3.3v-15.04
			c-1.279,0.667-2.567,1.281-3.868,1.829c-1.867,0.862-3.765,1.513-5.69,1.997c-4.106,1.16-8.295,1.748-12.539,1.748
			c-0.356,0-0.711-0.004-1.068-0.012c-2.061-0.047-4.137-0.24-6.209-0.568c-1.017-1.516-1.974-3.049-2.869-4.598
			c2.868,0.692,5.935,1.138,9.17,1.212c0.326,0.007,0.65,0.011,0.977,0.011c7.633,0,15.025-2.057,22.098-6.127V58.659
			c-6.239,5.29-14.323,8.488-23.145,8.488c-5.693,0-11.077-1.334-15.859-3.7c-2.081-1.03-4.049-2.256-5.876-3.654
			c-0.007-0.005-0.015-0.011-0.021-0.017c-1.092-0.836-2.133-1.733-3.12-2.687c-0.009-0.008-0.018-0.017-0.026-0.025
			c-0.651-0.631-1.279-1.286-1.883-1.966c-0.007-0.008-0.016-0.017-0.023-0.025c-0.906-1.023-1.754-2.1-2.539-3.222
			c-0.011-0.016-0.022-0.033-0.033-0.048c-0.521-0.746-1.012-1.512-1.475-2.297c-0.003-0.005-0.006-0.01-0.009-0.016
			c-0.231-0.394-0.456-0.792-0.672-1.194c-0.002-0.004-0.005-0.008-0.006-0.011c0.021,3.141,0.352,8.067,1.741,14.163
			c0.554,2.432,1.275,5.047,2.215,7.813c0.746,2.196,1.628,4.485,2.671,6.848c4.624,10.472,11.479,20.359,20.373,29.385
			c8.188,8.309,18.135,15.901,29.676,22.665v0.001l0,0l0,0v-0.001c11.541-6.764,21.488-14.356,29.675-22.665
			c8.896-9.026,15.749-18.913,20.373-29.385c1.043-2.363,1.926-4.651,2.671-6.848c0.94-2.766,1.662-5.381,2.216-7.813
			c1.39-6.096,1.721-11.021,1.742-14.163C140.81,49.509,140.082,50.69,139.291,51.824z"/>
	</g>
	<g>
		<path fill="#151515" d="M2.979,164.07c0.103,0.086,0.233,0.197,0.395,0.339s0.344,0.282,0.55,0.42
			c0.309,0.204,0.614,0.364,0.917,0.479c0.303,0.114,0.62,0.171,0.953,0.171c0.31,0,0.568-0.034,0.776-0.104
			c0.209-0.068,0.374-0.161,0.495-0.275c0.121-0.115,0.206-0.246,0.258-0.396c0.053-0.152,0.077-0.311,0.077-0.479
			c0-0.187-0.07-0.353-0.213-0.5c-0.142-0.148-0.315-0.279-0.521-0.394c-0.207-0.114-0.421-0.211-0.645-0.293
			c-0.225-0.081-0.418-0.148-0.581-0.203c-0.728-0.252-1.362-0.525-1.907-0.816c-0.545-0.293-0.999-0.617-1.362-0.975
			c-0.363-0.358-0.636-0.752-0.816-1.182c-0.182-0.432-0.272-0.911-0.272-1.44c0-0.56,0.112-1.068,0.34-1.526
			c0.228-0.457,0.551-0.849,0.972-1.173c0.421-0.325,0.928-0.576,1.521-0.753c0.594-0.178,1.257-0.267,1.989-0.267
			c0.551,0,1.078,0.062,1.584,0.185s1.003,0.32,1.493,0.591c0.206,0.121,0.401,0.246,0.587,0.376
			c0.184,0.129,0.346,0.255,0.484,0.375c0.14,0.12,0.251,0.235,0.332,0.343c0.082,0.109,0.123,0.201,0.123,0.28
			c0,0.078-0.021,0.15-0.06,0.217c-0.04,0.066-0.098,0.142-0.177,0.226l-1.39,1.473c-0.103,0.103-0.205,0.154-0.309,0.154
			c-0.085,0-0.161-0.024-0.231-0.073c-0.069-0.048-0.147-0.108-0.231-0.181l-0.082-0.071c-0.121-0.104-0.256-0.208-0.404-0.317
			c-0.147-0.107-0.307-0.207-0.477-0.292c-0.17-0.088-0.348-0.16-0.535-0.217c-0.188-0.059-0.378-0.087-0.572-0.087
			c-0.199,0-0.388,0.016-0.563,0.05c-0.176,0.033-0.329,0.086-0.463,0.157c-0.133,0.072-0.238,0.168-0.317,0.286
			c-0.078,0.116-0.118,0.26-0.118,0.429s0.042,0.313,0.127,0.438s0.212,0.238,0.382,0.344c0.169,0.105,0.379,0.203,0.631,0.298
			c0.251,0.093,0.544,0.194,0.877,0.303c0.641,0.21,1.232,0.433,1.773,0.663c0.542,0.232,1.01,0.507,1.404,0.824
			c0.393,0.314,0.7,0.692,0.921,1.133c0.221,0.438,0.331,0.973,0.331,1.598c0,0.663-0.136,1.265-0.408,1.803
			c-0.272,0.539-0.646,0.999-1.121,1.378c-0.476,0.38-1.034,0.673-1.676,0.881s-1.332,0.312-2.07,0.312
			c-0.695,0-1.38-0.124-2.052-0.372c-0.672-0.247-1.298-0.58-1.88-0.995c-0.241-0.177-0.446-0.35-0.612-0.519
			c-0.167-0.168-0.298-0.303-0.395-0.407l-0.027-0.026c-0.006-0.011-0.013-0.02-0.018-0.022c-0.007-0.004-0.013-0.008-0.02-0.014
			c-0.006-0.012-0.012-0.02-0.018-0.022c-0.007-0.003-0.013-0.009-0.019-0.014c-0.139-0.151-0.208-0.271-0.208-0.362
			c0-0.104,0.069-0.218,0.208-0.345l1.571-1.491c0.127-0.09,0.229-0.135,0.309-0.135c0.055,0,0.112,0.019,0.173,0.055
			C2.821,163.945,2.894,163.997,2.979,164.07z"/>
		<path fill="#151515" d="M23.48,155.967c0.103,0.061,0.178,0.14,0.226,0.235c0.05,0.097,0.04,0.211-0.026,0.343l-1.534,2.169
			c-0.066,0.103-0.138,0.161-0.214,0.176c-0.076,0.016-0.167-0.011-0.277-0.076c-0.296-0.223-0.623-0.395-0.98-0.517
			c-0.356-0.119-0.735-0.18-1.135-0.18c-0.496,0-0.952,0.095-1.37,0.28c-0.418,0.187-0.778,0.442-1.081,0.769
			c-0.303,0.325-0.539,0.704-0.708,1.138c-0.17,0.433-0.255,0.896-0.255,1.391s0.085,0.955,0.255,1.387
			c0.169,0.432,0.405,0.807,0.708,1.129s0.663,0.577,1.081,0.763c0.418,0.188,0.874,0.281,1.37,0.281
			c0.399,0,0.781-0.062,1.145-0.185c0.363-0.125,0.693-0.298,0.989-0.521c0.109-0.065,0.2-0.093,0.272-0.08
			c0.072,0.012,0.146,0.066,0.218,0.162l1.553,2.222c0.066,0.133,0.076,0.244,0.027,0.334c-0.049,0.091-0.124,0.166-0.227,0.226
			c-0.569,0.38-1.182,0.674-1.839,0.882s-1.349,0.311-2.075,0.311c-0.642,0-1.257-0.08-1.848-0.242
			c-0.59-0.164-1.143-0.395-1.657-0.697c-0.515-0.3-0.981-0.659-1.402-1.079c-0.421-0.418-0.782-0.883-1.085-1.392
			c-0.303-0.508-0.535-1.057-0.699-1.644c-0.163-0.586-0.245-1.2-0.245-1.839c0-0.637,0.082-1.251,0.245-1.838
			c0.164-0.587,0.396-1.138,0.699-1.652c0.303-0.516,0.664-0.983,1.085-1.405s0.888-0.782,1.402-1.079
			c0.515-0.299,1.067-0.531,1.657-0.695c0.591-0.167,1.206-0.249,1.848-0.249c0.727,0,1.413,0.101,2.057,0.304
			C22.304,155.298,22.911,155.587,23.48,155.967z"/>
		<path fill="#151515" d="M26.022,155.389c0.006-0.102,0.044-0.193,0.113-0.275c0.07-0.081,0.161-0.121,0.277-0.121h2.696
			c0.091,0,0.185,0.037,0.281,0.113c0.097,0.075,0.146,0.17,0.146,0.285v4.29h4.513v-4.29c0-0.109,0.037-0.202,0.113-0.281
			c0.075-0.079,0.173-0.117,0.294-0.117h2.653c0.121,0,0.227,0.03,0.317,0.091c0.09,0.061,0.136,0.156,0.136,0.288v12.638
			c0,0.133-0.04,0.231-0.117,0.299c-0.079,0.065-0.182,0.098-0.309,0.098h-2.681c-0.121,0-0.219-0.032-0.294-0.098
			c-0.076-0.067-0.113-0.166-0.113-0.299v-5.131h-4.513v5.131c0,0.126-0.041,0.225-0.123,0.294
			c-0.081,0.068-0.192,0.103-0.331,0.103h-2.669c-0.255,0-0.385-0.116-0.391-0.351V155.389z"/>
		<path fill="#151515" d="M40.568,155.389c0-0.107,0.033-0.201,0.1-0.279c0.066-0.079,0.166-0.117,0.3-0.117h2.669
			c0.091,0,0.188,0.034,0.29,0.107c0.104,0.073,0.155,0.169,0.155,0.289v12.62c0,0.266-0.148,0.396-0.445,0.396h-2.669
			c-0.267,0-0.399-0.131-0.399-0.396V155.389z"/>
		<path fill="#151515" d="M47.078,155.407c0-0.126,0.034-0.226,0.104-0.298c0.069-0.072,0.152-0.111,0.249-0.117h8.689
			c0.139,0,0.243,0.038,0.313,0.117c0.069,0.078,0.104,0.182,0.104,0.314v2.234c0,0.102-0.037,0.199-0.108,0.292
			c-0.074,0.094-0.18,0.14-0.319,0.14h-5.52v2.8h4.076c0.115,0,0.212,0.033,0.291,0.095c0.079,0.064,0.118,0.165,0.118,0.304v2.158
			c0,0.104-0.035,0.201-0.104,0.296c-0.07,0.091-0.165,0.139-0.286,0.139h-4.095v4.137c0,0.259-0.14,0.388-0.418,0.388h-2.77
			c-0.218-0.029-0.326-0.156-0.326-0.378V155.407z"/>
		<path fill="#151515" d="M58.854,155.407c0-0.126,0.035-0.226,0.104-0.298s0.153-0.111,0.25-0.117h8.689
			c0.14,0,0.244,0.038,0.313,0.117c0.069,0.078,0.104,0.182,0.104,0.314v2.234c0,0.102-0.037,0.199-0.109,0.292
			c-0.072,0.094-0.179,0.14-0.317,0.14h-5.521v2.8h4.076c0.115,0,0.212,0.033,0.29,0.095c0.08,0.064,0.119,0.165,0.119,0.304v2.158
			c0,0.104-0.035,0.201-0.104,0.296c-0.07,0.091-0.165,0.139-0.286,0.139h-4.095v4.137c0,0.259-0.14,0.388-0.418,0.388h-2.77
			c-0.218-0.029-0.327-0.156-0.327-0.378V155.407z"/>
		<path fill="#151515" d="M70.558,155.407c0-0.126,0.035-0.227,0.104-0.303c0.069-0.075,0.168-0.112,0.294-0.112h9.008
			c0.133,0,0.236,0.038,0.309,0.117c0.073,0.078,0.109,0.182,0.109,0.314v2.234c0,0.102-0.036,0.199-0.109,0.292
			c-0.072,0.094-0.178,0.14-0.316,0.14h-5.884v2.241h4.539c0.115,0,0.211,0.026,0.286,0.081c0.076,0.055,0.113,0.144,0.113,0.271
			v1.95c0,0.084-0.033,0.166-0.1,0.244c-0.067,0.079-0.163,0.117-0.291,0.117h-4.548v2.313h6.101c0.272,0,0.409,0.138,0.409,0.413
			v2.27c0,0.061-0.024,0.115-0.073,0.163c-0.024,0.168-0.147,0.251-0.372,0.251h-9.181c-0.121,0-0.218-0.03-0.289-0.095
			c-0.073-0.063-0.109-0.16-0.109-0.293V155.407z"/>
		<path fill="#151515" d="M82.833,155.407c0-0.126,0.033-0.227,0.101-0.303c0.065-0.075,0.166-0.112,0.299-0.112h5.865
			c0.624,0,1.209,0.115,1.753,0.347c0.545,0.233,1.02,0.547,1.425,0.945c0.406,0.397,0.726,0.861,0.958,1.396
			c0.233,0.533,0.35,1.101,0.35,1.703c0,0.408-0.056,0.799-0.167,1.168c-0.112,0.372-0.269,0.718-0.468,1.04
			c-0.199,0.321-0.438,0.613-0.713,0.875c-0.275,0.263-0.576,0.487-0.902,0.675l2.332,4.371c0.043,0.085,0.098,0.185,0.163,0.299
			c0.067,0.113,0.101,0.213,0.101,0.299c0,0.096-0.031,0.17-0.096,0.22c-0.063,0.052-0.149,0.076-0.259,0.076h-3.115
			c-0.102,0-0.193-0.029-0.275-0.089c-0.082-0.061-0.135-0.142-0.158-0.244l-2.207-4.127h-1.472v4.072
			c0,0.259-0.14,0.388-0.417,0.388h-2.697c-0.121,0-0.218-0.03-0.291-0.095c-0.072-0.063-0.108-0.16-0.108-0.293V155.407z
			 M89.942,159.418c0-0.181-0.032-0.361-0.1-0.542c-0.066-0.181-0.16-0.346-0.282-0.496c-0.12-0.151-0.266-0.277-0.435-0.381
			c-0.169-0.103-0.358-0.167-0.563-0.198c-0.17-0.012-0.33-0.021-0.477-0.03c-0.148-0.011-0.311-0.014-0.487-0.014h-1.253v3.314
			h1.672c0.108,0,0.205-0.003,0.29-0.009s0.179-0.015,0.282-0.027c0.212-0.024,0.402-0.087,0.571-0.186
			c0.17-0.1,0.313-0.224,0.428-0.369c0.113-0.147,0.201-0.313,0.262-0.499C89.913,159.799,89.942,159.61,89.942,159.418z"/>
		<path fill="#151515" d="M101.354,155.407c0-0.126,0.036-0.226,0.105-0.298s0.152-0.111,0.25-0.117h8.688
			c0.14,0,0.244,0.038,0.313,0.117c0.071,0.078,0.106,0.182,0.106,0.314v2.234c0,0.102-0.038,0.199-0.109,0.292
			c-0.073,0.094-0.179,0.14-0.318,0.14h-5.52v2.8h4.076c0.115,0,0.212,0.033,0.291,0.095c0.078,0.064,0.117,0.165,0.117,0.304v2.158
			c0,0.104-0.034,0.201-0.104,0.296c-0.07,0.091-0.166,0.139-0.288,0.139h-4.093v4.137c0,0.259-0.141,0.388-0.419,0.388h-2.768
			c-0.219-0.029-0.329-0.156-0.329-0.378V155.407z"/>
		<path fill="#151515" d="M115.502,155.344c0.006-0.036,0.025-0.075,0.059-0.117c0.034-0.041,0.074-0.081,0.123-0.117
			c0.048-0.037,0.1-0.064,0.154-0.086c0.055-0.021,0.105-0.031,0.153-0.031h2.325c0.103,0,0.19,0.031,0.264,0.094
			c0.072,0.064,0.127,0.119,0.164,0.167l0.227,0.517l4.766,12.23c0.05,0.12,0.04,0.219-0.025,0.294
			c-0.067,0.074-0.183,0.111-0.346,0.111h-2.606c-0.14,0-0.246-0.024-0.322-0.076c-0.076-0.05-0.135-0.137-0.178-0.257
			c-0.12-0.307-0.238-0.613-0.354-0.917c-0.115-0.305-0.229-0.609-0.345-0.917h-4.822c-0.115,0.308-0.23,0.612-0.349,0.917
			c-0.119,0.304-0.235,0.61-0.349,0.917c-0.08,0.223-0.234,0.333-0.465,0.333h-2.678c-0.115,0-0.211-0.029-0.285-0.089
			c-0.077-0.061-0.09-0.15-0.041-0.272L115.502,155.344z M117.154,159.21c-0.115,0.308-0.231,0.64-0.35,0.994
			c-0.118,0.355-0.235,0.714-0.351,1.075c-0.113,0.361-0.23,0.719-0.349,1.07c-0.117,0.353-0.235,0.682-0.349,0.989h2.786
			L117.154,159.21z"/>
		<path fill="#151515" d="M126.297,155.389c0.012-0.107,0.055-0.201,0.127-0.279c0.073-0.079,0.176-0.117,0.31-0.117h3.141
			c0.225,0,0.37,0.114,0.437,0.344l2.469,8.201l2.489-8.201c0.084-0.229,0.238-0.344,0.463-0.344h3.104
			c0.109,0,0.208,0.037,0.296,0.112c0.088,0.076,0.138,0.171,0.149,0.284c0.212,2.12,0.429,4.224,0.649,6.311
			c0.22,2.086,0.437,4.189,0.648,6.31v0.046c0,0.234-0.133,0.351-0.398,0.351h-2.57c-0.278,0-0.423-0.131-0.436-0.396l-0.79-6.983
			l-2.043,7.029c-0.012,0.06-0.056,0.131-0.132,0.217c-0.075,0.084-0.15,0.125-0.222,0.125h-2.388c-0.074,0-0.15-0.039-0.232-0.121
			s-0.126-0.155-0.131-0.221l-2.043-7.011l-0.791,6.965c-0.012,0.266-0.159,0.396-0.443,0.396h-2.571c-0.26,0-0.39-0.131-0.39-0.396
			L126.297,155.389z"/>
		<path fill="#151515" d="M143.021,155.389c0-0.107,0.033-0.201,0.101-0.279c0.066-0.079,0.166-0.117,0.3-0.117h2.669
			c0.091,0,0.188,0.034,0.29,0.107c0.104,0.073,0.155,0.169,0.155,0.289v12.62c0,0.266-0.148,0.396-0.445,0.396h-2.669
			c-0.267,0-0.4-0.131-0.4-0.396V155.389z"/>
		<path fill="#151515" d="M149.142,155.381c0-0.108,0.036-0.201,0.109-0.281c0.071-0.077,0.172-0.116,0.298-0.116h2.689
			c0.103,0,0.197,0.035,0.281,0.107c0.084,0.073,0.13,0.169,0.137,0.29v9.828h4.993c0.108,0,0.203,0.036,0.281,0.107
			c0.079,0.073,0.117,0.173,0.117,0.299v2.375c0,0.103-0.034,0.195-0.104,0.281c-0.069,0.084-0.168,0.129-0.295,0.134h-8.108
			c-0.267,0-0.399-0.131-0.399-0.396V155.381z"/>
		<path fill="#151515" d="M163.91,159.942l2.192-4.67c0.036-0.073,0.066-0.126,0.09-0.159c0.024-0.033,0.049-0.057,0.073-0.071
			c0.025-0.017,0.05-0.025,0.076-0.027c0.027-0.004,0.06-0.011,0.096-0.022h3.496c0.043,0,0.077,0.014,0.104,0.04
			c0.027,0.027,0.041,0.059,0.041,0.095c0,0.066-0.042,0.142-0.126,0.227l-4.305,7.578v5.051c0,0.283-0.139,0.423-0.416,0.423
			h-2.717c-0.122,0-0.215-0.037-0.282-0.111c-0.065-0.075-0.099-0.18-0.099-0.312v-5.068l-4.295-7.561
			c-0.079-0.078-0.118-0.154-0.118-0.227c0-0.036,0.012-0.067,0.036-0.095c0.024-0.026,0.058-0.04,0.1-0.04h3.496
			c0.042,0.012,0.075,0.019,0.1,0.022c0.024,0.002,0.049,0.011,0.074,0.027c0.023,0.015,0.048,0.038,0.071,0.071
			c0.025,0.033,0.057,0.086,0.101,0.159L163.91,159.942z"/>
	</g>
	<g>
		<g>
			<path fill="#151515" d="M17.534,180.423h-1.998v3.744h-0.969v-8.645h3.451v0.876h-2.482v3.149h1.998V180.423z"/>
			<path fill="#151515" d="M29.827,176.017c0.336-0.388,0.83-0.582,1.483-0.582s1.15,0.194,1.489,0.582
				c0.34,0.386,0.51,0.917,0.51,1.592v4.471c0,0.676-0.17,1.206-0.51,1.593c-0.339,0.386-0.836,0.58-1.489,0.58
				c-0.646,0-1.138-0.194-1.478-0.58c-0.338-0.387-0.508-0.917-0.508-1.593v-4.471C29.325,176.934,29.492,176.402,29.827,176.017z
				 M30.541,183.055c0.174,0.214,0.431,0.322,0.77,0.322c0.687,0,1.031-0.418,1.031-1.249v-4.569c0-0.395-0.086-0.701-0.255-0.919
				c-0.169-0.219-0.429-0.326-0.776-0.326c-0.339,0-0.596,0.107-0.77,0.326c-0.174,0.218-0.26,0.524-0.26,0.919v4.569
				C30.281,182.532,30.367,182.84,30.541,183.055z"/>
			<path fill="#151515" d="M46.776,183.325c0.338,0,0.591-0.106,0.757-0.32c0.165-0.214,0.248-0.521,0.248-0.926v-6.607h0.905v6.56
				c0,0.683-0.16,1.218-0.483,1.604c-0.323,0.385-0.811,0.58-1.465,0.58c-0.645,0-1.13-0.195-1.451-0.587
				c-0.323-0.391-0.485-0.926-0.485-1.598v-6.56h0.956v6.607C45.758,182.912,46.098,183.325,46.776,183.325z"/>
			<path fill="#151515" d="M60.243,184.167v-8.645h1.228l2.012,6.249v-6.249h0.855v8.645h-1.005l-2.223-6.991v6.991H60.243z"/>
			<path fill="#151515" d="M79.463,176.083c0.326,0.376,0.49,0.905,0.49,1.589v4.359c0,0.672-0.164,1.2-0.49,1.573
				c-0.328,0.375-0.822,0.563-1.484,0.563h-2.034v-8.645h2.034C78.641,175.522,79.135,175.709,79.463,176.083z M78.997,182.066
				v-4.444c0-0.816-0.347-1.224-1.044-1.224h-1.041v6.892h1.055C78.653,183.29,78.997,182.882,78.997,182.066z"/>
			<path fill="#151515" d="M92.104,184.167h-0.893l1.662-8.645h1.402l1.664,8.645h-0.969l-0.335-1.742h-2.196L92.104,184.167z
				 M94.5,181.598l-0.981-4.989l-0.956,4.989H94.5z"/>
			<path fill="#151515" d="M108.091,176.398h-1.602v-0.876h4.159v0.876h-1.602v7.769h-0.956V176.398z"/>
			<path fill="#151515" d="M122.884,184.167h-0.967v-8.645h0.967V184.167z"/>
			<path fill="#151515" d="M134.917,176.017c0.336-0.388,0.831-0.582,1.484-0.582c0.652,0,1.151,0.194,1.489,0.582
				c0.34,0.386,0.509,0.917,0.509,1.592v4.471c0,0.676-0.169,1.206-0.509,1.593c-0.338,0.386-0.837,0.58-1.489,0.58
				c-0.646,0-1.138-0.194-1.479-0.58c-0.339-0.387-0.509-0.917-0.509-1.593v-4.471C134.414,176.934,134.583,176.402,134.917,176.017
				z M135.632,183.055c0.173,0.214,0.429,0.322,0.77,0.322c0.687,0,1.03-0.418,1.03-1.249v-4.569c0-0.395-0.086-0.701-0.255-0.919
				c-0.171-0.219-0.429-0.326-0.775-0.326c-0.341,0-0.597,0.107-0.77,0.326c-0.175,0.218-0.261,0.524-0.261,0.919v4.569
				C135.371,182.532,135.457,182.84,135.632,183.055z"/>
			<path fill="#151515" d="M149.918,184.167v-8.645h1.229l2.011,6.249v-6.249h0.855v8.645h-1.004l-2.223-6.991v6.991H149.918z"/>
		</g>
		<g>
			<rect x="23.072" y="179.322" fill="#151515" width="1.185" height="1.038"/>
		</g>
		<g>
			<rect x="38.501" y="179.322" fill="#151515" width="1.186" height="1.038"/>
		</g>
		<g>
			<rect x="53.854" y="179.322" fill="#151515" width="1.186" height="1.038"/>
		</g>
		<g>
			<rect x="69.551" y="179.322" fill="#151515" width="1.186" height="1.038"/>
		</g>
		<g>
			<rect x="84.979" y="179.322" fill="#151515" width="1.187" height="1.038"/>
		</g>
		<g>
			<rect x="100.652" y="179.322" fill="#151515" width="1.185" height="1.038"/>
		</g>
		<g>
			<rect x="115.712" y="179.322" fill="#151515" width="1.185" height="1.038"/>
		</g>
		<g>
			<rect x="128.039" y="179.322" fill="#151515" width="1.186" height="1.038"/>
		</g>
		<g>
			<rect x="143.508" y="179.322" fill="#151515" width="1.186" height="1.038"/>
		</g>
		<g>
			<rect y="179.434" fill="#151515" width="9.313" height="0.819"/>
			<rect x="159.267" y="179.434" fill="#151515" width="10.313" height="0.819"/>
		</g>
	</g>
</g>
</svg>
