<?xml version="1.0" encoding="UTF-8" standalone="no"?>
<!DOCTYPE svg PUBLIC "-//W3C//DTD SVG 1.1//EN" "http://www.w3.org/Graphics/SVG/1.1/DTD/svg11.dtd">
<svg xmlns="http://www.w3.org/2000/svg" xmlns:xlink="http://www.w3.org/1999/xlink" version="1.1" width="600pt" height="600pt" viewBox="0 0 600 600">
<g enable-background="new">
<g>
<g id="Layer-1" data-name="Layer">
<clipPath id="cp0">
<path transform="matrix(1,0,0,-1,0,600)" d="M 0 600 L 600 600 L 600 0 L 0 0 Z "/>
</clipPath>
<g clip-path="url(#cp0)">
<g opacity="0">
<clipPath id="cp1">
<path transform="matrix(1,0,0,-1,0,600)" d="M 54.4619 176.253 L 545.537 176.253 L 545.537 423.747 L 54.4619 423.747 Z "/>
</clipPath>
<g clip-path="url(#cp1)">
<path transform="matrix(1,0,0,-1,0,600)" d="M 545.537 176.253 L 54.461977 176.253 L 54.461977 423.747 L 545.537 423.747 Z " fill="#ffffff"/>
</g>
</g>
<path transform="matrix(1,0,0,-1,233.2363,298.6)" d="M 0 0 C -.226 .265 -.557 .418 -.906 .418 L -23.963 .418 C -24.55 .418 -25.049 -.009 -25.141 -.588 L -38.583 -85.787 C -38.637 -86.131 -38.538 -86.482 -38.312 -86.748 C -38.085 -87.012 -37.754 -87.165 -37.406 -87.165 L -14.358 -87.165 C -13.771 -87.165 -13.272 -86.738 -13.181 -86.159 L .271 -.96 C .326 -.616 .226 -.265 0 0 " fill="#ff5c39"/>
<path transform="matrix(1,0,0,-1,275.3226,362.89863)" d="M 0 0 C -.227 .265 -.558 .417 -.906 .417 L -12.783 .414 C -15.345 .652 -17.287 1.661 -18.72 3.498 C -21.321 6.835 -22.115 13.137 -20.897 20.791 C -20.317 24.493 -18.349 33.627 -12.659 38.49 C -9.25 41.326 -5.619 41.547 -4.588 41.547 C -4.461 41.547 -4.385 41.543 -4.373 41.542 C -4.347 41.54 -4.32 41.54 -4.294 41.54 L 5.958 41.54 C 6.545 41.54 7.044 41.966 7.136 42.546 L 10.416 63.339 C 10.471 63.683 10.371 64.034 10.145 64.299 C 9.918 64.563 9.587 64.716 9.238 64.716 L -2.002 64.711 C -5.022 64.711 -15.679 64.138 -26.012 56.772 C -36.747 49.12 -43.489 36.956 -46.051 20.621 C -48.367 6.032 -46.103 -5.764 -39.506 -13.491 C -34.33 -19.554 -26.831 -22.758 -17.821 -22.758 L -4.186 -22.758 C -3.6 -22.758 -3.1 -22.332 -3.009 -21.752 L .271 -.96 C .326 -.616 .226 -.265 0 0 " fill="#ff5c39"/>
<path transform="matrix(1,0,0,-1,202.2153,320.3529)" d="M 0 0 L 3.276 20.793 C 3.33 21.138 3.231 21.489 3.004 21.754 C 2.778 22.018 2.447 22.171 2.098 22.171 L -46.832 22.171 C -47.418 22.171 -47.918 21.744 -48.009 21.165 L -51.284 .371 C -51.338 .027 -51.239 -.324 -51.013 -.589 C -50.786 -.854 -50.456 -1.006 -50.107 -1.006 L -38.851 -1.006 L -48.8 -64.034 C -48.854 -64.378 -48.755 -64.729 -48.529 -64.994 C -48.302 -65.259 -47.971 -65.412 -47.623 -65.412 L -24.575 -65.412 C -23.989 -65.412 -23.489 -64.985 -23.398 -64.406 L -13.38 -1.006 L -1.177 -1.006 C -.591 -1.006 -.091 -.579 0 0 " fill="#ff5c39"/>
<path transform="matrix(1,0,0,-1,151.3303,298.6)" d="M 0 0 C -.226 .265 -.557 .418 -.906 .418 L -19.067 .418 C -19.107 .418 -19.147 .416 -19.186 .412 C -38.085 .339 -47.857 -16.821 -49.579 -27.64 C -50.504 -33.272 -49.75 -38.23 -47.256 -42.831 C -44.766 -47.097 -41.135 -50.487 -37.629 -53.594 C -37.606 -53.614 -37.582 -53.634 -37.557 -53.653 C -36.127 -54.732 -35.268 -55.585 -34.682 -56.503 C -34.657 -56.542 -34.63 -56.58 -34.601 -56.616 C -33.775 -57.63 -33.516 -58.752 -33.763 -60.266 C -33.907 -61.212 -34.357 -62.059 -35.076 -62.762 C -36.13 -63.738 -38.023 -63.865 -38.545 -63.88 L -54.286 -63.88 C -54.873 -63.88 -55.372 -64.306 -55.464 -64.885 L -58.749 -85.679 C -58.803 -86.024 -58.704 -86.375 -58.478 -86.639 C -58.251 -86.905 -57.92 -87.057 -57.572 -87.057 L -40.551 -87.057 C -25.019 -87.057 -11.382 -74.807 -8.83 -58.562 C -7.881 -52.52 -8.476 -47.743 -10.704 -43.53 C -12.903 -39.369 -16.633 -36.085 -20.344 -33.157 C -20.697 -32.809 -21.094 -32.463 -21.513 -32.098 C -22.295 -31.417 -23.102 -30.713 -23.672 -29.953 C -24.698 -28.582 -25.081 -27.423 -24.868 -26.257 C -24.761 -25.5 -24.411 -24.797 -23.837 -24.177 C -23.741 -24.076 -23.643 -23.982 -23.526 -23.878 C -22.516 -22.993 -21.363 -22.796 -20.747 -22.759 L -4.192 -22.759 C -3.605 -22.759 -3.106 -22.333 -3.014 -21.753 L .271 -.96 C .326 -.616 .226 -.265 0 0 " fill="#ff5c39"/>
<path transform="matrix(1,0,0,-1,430.5862,327.7938)" d="M 0 0 C -.687 -4.869 -4.288 -9.797 -9.845 -9.823 L -9.977 -9.813 L -6.947 8.943 C -5.095 8.927 -2.631 8.532 -1.154 6.787 C .115 5.286 .506 3.013 0 0 M 76.61 29.194 C 76.384 29.459 76.053 29.612 75.704 29.612 L 57.544 29.612 C 57.504 29.612 57.464 29.61 57.424 29.606 C 38.526 29.533 28.753 12.373 27.032 1.554 C 26.107 -4.077 26.86 -9.036 29.354 -13.637 C 31.845 -17.904 35.476 -21.293 38.982 -24.4 C 39.005 -24.42 39.029 -24.44 39.054 -24.459 C 40.483 -25.539 41.344 -26.392 41.928 -27.31 C 41.953 -27.349 41.98 -27.386 42.009 -27.422 C 42.835 -28.436 43.094 -29.558 42.848 -31.072 C 42.703 -32.017 42.254 -32.865 41.534 -33.569 C 40.48 -34.544 38.588 -34.671 38.066 -34.686 L 22.324 -34.686 C 21.738 -34.686 21.239 -35.112 21.147 -35.691 L 18.626 -51.651 L 8.989 -21.997 C 17.772 -18.305 23.692 -10.399 25.304 -.129 C 26.766 9.272 25.428 16.233 21.214 21.153 C 16.271 26.924 7.645 29.612 -5.933 29.612 L -28.198 29.612 C -28.785 29.612 -29.284 29.185 -29.375 28.606 L -42.818 -56.594 C -42.872 -56.937 -42.773 -57.288 -42.547 -57.554 C -42.32 -57.818 -41.989 -57.971 -41.641 -57.971 L -18.593 -57.971 C -18.007 -57.971 -17.508 -57.545 -17.416 -56.967 L -13.801 -34.253 C -13.461 -32.168 -13.177 -30.079 -12.924 -28.004 L -7.101 -57.014 C -6.989 -57.571 -6.501 -57.971 -5.933 -57.971 L 19.039 -57.971 C 19.212 -57.971 19.38 -57.933 19.534 -57.863 L 36.059 -57.863 C 51.592 -57.863 65.229 -45.613 67.78 -29.368 C 68.73 -23.326 68.135 -18.549 65.907 -14.336 C 63.707 -10.175 59.977 -6.891 56.265 -3.963 C 55.913 -3.614 55.515 -3.268 55.096 -2.902 C 54.315 -2.222 53.508 -1.519 52.938 -.759 C 51.912 .612 51.53 1.77 51.743 2.936 C 51.849 3.693 52.199 4.397 52.776 5.018 C 52.871 5.119 52.968 5.212 53.085 5.316 C 54.094 6.201 55.247 6.398 55.864 6.435 L 72.419 6.435 C 73.005 6.435 73.504 6.861 73.596 7.44 L 76.881 28.234 C 76.935 28.578 76.836 28.929 76.61 29.194 " fill="#ff5c39"/>
<path transform="matrix(1,0,0,-1,326.0747,340.6603)" d="M 0 0 L 24.584 40.67 C 24.807 41.038 24.814 41.497 24.603 41.872 C 24.391 42.247 23.994 42.478 23.564 42.478 L -.726 42.478 C -1.175 42.478 -1.587 42.225 -1.789 41.823 L -16.855 11.98 L -12.318 41.103 C -12.265 41.447 -12.364 41.797 -12.591 42.062 C -12.817 42.326 -13.148 42.478 -13.496 42.478 L -36.554 42.478 C -37.14 42.478 -37.639 42.052 -37.731 41.472 L -51.173 -43.727 C -51.228 -44.071 -51.128 -44.422 -50.902 -44.687 C -50.676 -44.952 -50.344 -45.104 -49.996 -45.104 L -26.948 -45.104 C -26.362 -45.104 -25.863 -44.678 -25.771 -44.1 L -20.524 -11.12 L -13.651 -44.155 C -13.536 -44.708 -13.049 -45.104 -12.484 -45.104 L 12.266 -45.104 C 12.644 -45.104 13 -44.925 13.224 -44.621 C 13.45 -44.317 13.517 -43.924 13.405 -43.562 Z " fill="#ff5c39"/>
<path transform="matrix(1,0,0,-1,388.048,363.6854)" d="M 0 0 C -.226 .265 -.557 .417 -.906 .417 L -19.286 .417 L -17.626 11.025 L -.906 11.025 C -.322 11.025 .176 11.448 .27 12.025 L 3.555 32.138 C 3.611 32.483 3.514 32.835 3.287 33.101 C 3.06 33.368 2.729 33.521 2.379 33.521 L -13.982 33.521 L -12.534 43.007 L 6.215 43.007 C 6.802 43.007 7.301 43.434 7.393 44.014 L 10.558 64.126 C 10.612 64.47 10.513 64.821 10.286 65.086 C 10.06 65.351 9.729 65.503 9.38 65.503 L -33.449 65.503 C -34.036 65.503 -34.535 65.077 -34.627 64.497 L -48.069 -20.702 C -48.123 -21.046 -48.024 -21.397 -47.798 -21.662 C -47.572 -21.927 -47.241 -22.079 -46.892 -22.079 L -4.071 -22.079 C -3.484 -22.079 -2.985 -21.652 -2.894 -21.073 L .271 -.96 C .325 -.616 .226 -.265 0 0 " fill="#ff5c39"/>
<path transform="matrix(1,0,0,-1,202.8266,262.773)" d="M 0 0 L -5.633 0 L -3.125 15.673 C -2.883 17.1 -2.668 18.542 -2.47 19.983 C -2.318 18.558 -2.155 17.133 -1.974 15.724 Z M 57.274 28.54 C 57.274 22.996 57.901 17.427 58.539 12.023 L 45.462 48.447 L 24.526 48.447 L 24.526 -14.884 L 11.087 48.447 L -15.09 48.447 L -33.306 -27.432 L -10.323 -27.432 L -8.665 -17.98 L 2.67 -17.98 L 4.131 -27.432 L 24.526 -27.432 L 27.189 -27.432 L 46.014 -27.432 L 46.014 -4.7 C 46.014 -.535 45.694 3.643 45.34 7.719 L 57.619 -27.432 L 78.769 -27.432 L 78.769 48.447 L 57.274 48.447 Z " fill="#ffffff"/>
<path transform="matrix(1,0,0,-1,179.3526,214.3255)" d="M 0 0 L -44.592 0 L -44.592 -20.321 L -33.671 -20.321 L -33.671 -75.88 L -11.405 -75.88 L -11.405 -20.321 L 0 -20.321 Z " fill="#ffffff"/>
<path transform="matrix(1,0,0,-1,118.2784,214.3541)" d="M 0 0 L -2.493 .016 C -19.392 .016 -25.69 -15.046 -25.69 -24.54 C -25.69 -29.531 -24.333 -33.828 -21.538 -37.68 C -18.861 -41.32 -15.176 -44.263 -11.583 -47 C -10.492 -47.75 -9.361 -48.561 -8.577 -49.509 L -8.533 -49.558 C -7.702 -50.457 -7.325 -51.415 -7.316 -52.659 L -7.322 -52.769 C -7.325 -52.943 -7.339 -53.097 -7.367 -53.252 L -7.382 -53.317 C -7.659 -54.6 -8.812 -55.53 -10.123 -55.53 L -25.69 -55.53 L -25.69 -75.851 L -6.393 -75.851 C 5.83 -74.359 14.587 -63.931 14.587 -50.919 C 14.587 -45.616 13.393 -41.475 10.84 -37.902 C 8.332 -34.256 4.63 -31.445 .998 -28.951 C .708 -28.721 .391 -28.483 .062 -28.237 C -.8 -27.59 -1.692 -26.922 -2.385 -26.174 C -3.036 -25.477 -3.459 -24.868 -3.718 -24.257 C -3.796 -24.075 -3.855 -23.897 -3.894 -23.728 C -3.932 -23.562 -3.951 -23.373 -3.953 -23.12 C -3.954 -23.095 -3.955 -23.071 -3.957 -23.046 C -3.956 -23.029 -3.954 -23.012 -3.953 -22.994 L -3.94 -22.864 C -3.845 -21.422 -2.646 -20.293 -1.211 -20.293 L 14.587 -20.293 L 14.587 .029 L .572 .02 C .388 .019 .192 .019 0 0 " fill="#ffffff"/>
<path transform="matrix(1,0,0,-1,305.7562,269.9718)" d="M 0 0 L 0 34.852 C 4.005 34.273 8.244 30.48 8.244 17.024 C 8.244 3.546 3.167 .553 0 0 M 209.927 84.667 L 143.558 84.667 C 142.71 84.667 141.914 84.337 141.315 83.738 L 136.592 79.013 L 136.592 81.496 C 136.592 83.244 135.169 84.667 133.421 84.667 L 113.535 84.667 C 112.7 84.667 111.883 84.329 111.292 83.738 L 103.14 75.584 C 97.665 82.364 90.133 85.938 81.272 85.938 L 79.763 85.938 C 71.94 85.938 65.295 83.249 60.046 77.976 L 35.677 53.615 C 35.609 53.547 35.545 53.476 35.484 53.404 C 31.658 49.753 28.534 44.595 26.445 38.478 C 20.707 49.577 9.621 55.646 -5.089 55.646 L -22.266 55.646 L -22.266 -20.234 L -3.724 -20.234 C 12.869 -20.234 23.608 -13.447 28.253 -.048 C 33.236 -13.742 43.258 -21.504 56.203 -21.504 C 64.02 -21.504 70.662 -18.821 75.943 -13.53 L 86.628 -2.85 C 89.899 -15.066 99.119 -21.504 113.423 -21.504 C 122.665 -21.504 129.795 -18.803 134.618 -13.474 L 150.404 2.314 L 150.404 -17.073 C 150.404 -18.822 151.827 -20.245 153.575 -20.245 L 173.456 -20.245 C 174.303 -20.245 175.099 -19.915 175.699 -19.316 L 200.766 5.748 C 201.373 6.353 201.712 7.195 201.695 8.036 L 201.695 50.838 L 212.176 61.316 C 212.807 61.947 213.142 62.818 213.099 63.714 L 213.099 81.496 C 213.099 83.244 211.676 84.667 209.927 84.667 " fill="#ffffff"/>
<path transform="matrix(1,0,0,-1,386.274,206.48319)" d="M 0 0 L 0 0 C 7.507 0 7.798 -14.921 7.798 -19.495 C 7.798 -24.078 7.507 -38.992 0 -38.992 C -2.345 -38.992 -3.986 -37.535 -5.133 -35.393 C -5.248 -35.179 -5.358 -34.957 -5.463 -34.73 C -5.91 -33.764 -6.269 -32.687 -6.561 -31.56 C -6.667 -31.155 -6.763 -30.744 -6.851 -30.328 C -7.728 -26.191 -7.795 -21.675 -7.795 -19.495 C -7.795 -14.921 -7.504 0 0 0 M 0 18.524 C -20.176 18.524 -28.072 -1.562 -28.072 -19.495 C -28.072 -37.432 -20.176 -57.511 0 -57.511 C 20.179 -57.511 28.075 -37.432 28.075 -19.495 C 28.075 -1.562 20.179 18.524 0 18.524 " fill="#49c5b1"/>
<path transform="matrix(1,0,0,-1,472.7253,189.23029)" d="M 0 0 L 0 -17.937 L 10.917 -17.937 L 10.917 -73.505 L 30.8 -73.505 L 30.8 -17.937 L 42.204 -17.937 L 42.204 0 Z " fill="#49c5b1"/>
<path transform="matrix(1,0,0,-1,448.5615,189.23029)" d="M 0 0 L 0 -46.303 C 0 -48.156 .095 -50.688 -.489 -52.739 C -.975 -54.685 -2.239 -56.245 -5.072 -56.245 C -7.8 -56.245 -9.066 -54.685 -9.655 -52.639 C -10.245 -50.688 -10.14 -48.156 -10.14 -46.205 L -10.14 0 L -30.025 0 L -30.025 -48.056 C -30.025 -56.924 -28.07 -74.764 -5.072 -74.764 C 17.937 -74.764 19.886 -56.924 19.886 -48.056 L 19.886 0 Z " fill="#49c5b1"/>
<path transform="matrix(1,0,0,-1,518.9023,383.00599)" d="M 0 0 C -.204 -.131 -.439 -.22 -.708 -.263 C -.977 -.308 -1.26 -.334 -1.556 -.334 L -4.223 -.334 L -4.223 3.021 L -1.045 3.021 C -.444 3.021 -.008 2.867 .262 2.562 C .53 2.259 .664 1.862 .664 1.378 C .664 1.03 .606 .746 .482 .523 C .362 .305 .2 .131 0 0 M 1.821 -4.29 C 1.786 -4.058 1.764 -3.816 1.757 -3.576 C 1.747 -3.336 1.734 -3.096 1.715 -2.864 C 1.687 -2.626 1.649 -2.405 1.6 -2.19 C 1.55 -1.973 1.477 -1.778 1.371 -1.604 C 1.268 -1.428 1.131 -1.277 .955 -1.154 C .781 -1.026 .554 -.935 .272 -.884 L .272 -.857 C .857 -.693 1.281 -.394 1.545 .046 C 1.812 .486 1.946 .997 1.946 1.583 C 1.946 2.362 1.684 2.977 1.172 3.425 C .655 3.873 -.062 4.098 -.977 4.098 L -5.502 4.098 L -5.502 -5.514 L -4.223 -5.514 L -4.223 -1.408 L -1.1 -1.408 C -.785 -1.408 -.531 -1.454 -.345 -1.55 C -.155 -1.645 -.005 -1.768 .114 -1.928 C .229 -2.084 .314 -2.268 .371 -2.478 C .422 -2.689 .468 -2.911 .503 -3.145 C .548 -3.377 .575 -3.616 .585 -3.856 C .592 -4.099 .601 -4.326 .612 -4.54 C .619 -4.748 .642 -4.939 .672 -5.112 C .705 -5.281 .764 -5.415 .854 -5.514 L 2.28 -5.514 C 2.145 -5.352 2.045 -5.167 1.975 -4.957 C 1.909 -4.745 1.857 -4.523 1.821 -4.29 " fill="#333f48"/>
<path transform="matrix(1,0,0,-1,516.9503,392.15809)" d="M 0 0 C -4.632 0 -8.401 3.769 -8.401 8.401 C -8.401 13.033 -4.632 16.802 0 16.802 C 4.632 16.802 8.401 13.033 8.401 8.401 C 8.401 3.769 4.632 0 0 0 M 0 18.086 C -5.349 18.086 -9.685 13.75 -9.685 8.401 C -9.685 3.052 -5.349 -1.284 0 -1.284 C 5.35 -1.284 9.685 3.052 9.685 8.401 C 9.685 13.75 5.35 18.086 0 18.086 " fill="#333f48"/>
<path transform="matrix(1,0,0,-1,202.0347,246.9003)" d="M 0 0 C -.587 4.58 -.976 9.255 -1.468 13.834 L -1.659 13.834 C -2.246 9.255 -2.73 4.58 -3.508 0 L -6.239 -17.064 L 2.143 -17.064 Z M 102.53 13.056 L 102.53 -24.374 C 111.594 -24.279 113.157 -12.969 113.157 -6.048 C 113.157 1.945 111.594 13.056 102.53 13.056 M 315.628 40.611 C 315.663 40.046 315.457 39.489 315.055 39.087 L 304.225 28.26 L 304.225 -15.036 C 304.235 -15.569 304.032 -16.095 303.647 -16.48 L 278.578 -41.545 C 278.206 -41.916 277.703 -42.124 277.178 -42.124 L 257.297 -42.124 C 256.203 -42.124 255.318 -41.238 255.318 -40.145 L 255.318 -17.88 L 237.523 -35.676 C 237.512 -35.687 237.5 -35.699 237.488 -35.71 C 232.901 -40.802 226.057 -43.383 217.144 -43.383 C 202.601 -43.383 193.643 -36.553 191.021 -23.564 L 178.909 -35.676 C 178.881 -35.703 178.854 -35.728 178.826 -35.753 C 173.776 -40.816 167.417 -43.383 159.924 -43.383 C 144.73 -43.383 135.686 -32.62 131.925 -19.048 C 126.861 -39.906 110.16 -42.114 99.998 -42.114 L 82.648 -42.114 L 82.648 31.383 L 98.633 31.383 C 114.553 31.383 125.29 24.317 130.258 12.386 C 130.301 12.286 130.349 12.191 130.39 12.09 C 130.391 12.087 130.393 12.084 130.394 12.08 C 130.666 13.069 130.961 14.04 131.283 14.986 L 131.283 14.991 C 133.296 20.893 136.287 25.922 140.084 29.523 C 140.132 29.585 140.185 29.645 140.241 29.702 L 164.505 53.962 C 164.529 53.986 164.553 54.009 164.578 54.031 C 169.629 59.103 175.989 61.675 183.484 61.675 L 184.994 61.675 C 193.965 61.675 201.439 57.896 206.747 50.711 L 215.856 59.824 C 216.227 60.195 216.731 60.404 217.256 60.404 L 237.142 60.404 C 238.235 60.404 239.121 59.518 239.121 58.425 L 239.121 53.064 L 245.879 59.824 C 246.252 60.197 246.755 60.404 247.279 60.404 L 313.649 60.404 C 314.742 60.404 315.628 59.518 315.628 58.425 Z M 304.256 -52.473 L 300.97 -73.268 L 284.381 -73.268 C 283.616 -73.309 282.146 -73.546 280.85 -74.682 C 280.842 -74.689 280.835 -74.695 280.828 -74.702 C 280.703 -74.812 280.58 -74.93 280.46 -75.058 C 279.766 -75.806 279.263 -76.722 279.113 -77.793 C 278.793 -79.534 279.557 -81.062 280.534 -82.368 C 281.52 -83.682 283.048 -84.774 284.025 -85.751 C 288.173 -89.02 291.441 -92.076 293.404 -95.788 C 295.367 -99.501 296.131 -103.862 295.154 -110.079 C 292.756 -125.347 280.099 -137.569 264.609 -137.569 L 247.588 -137.569 L 250.873 -116.774 L 266.616 -116.774 C 267.527 -116.749 269.589 -116.547 270.894 -115.34 C 271.75 -114.503 272.378 -113.442 272.576 -112.149 C 272.896 -110.186 272.461 -108.765 271.483 -107.566 C 270.72 -106.367 269.627 -105.389 268.322 -104.404 C 264.502 -101.02 261.225 -97.858 258.933 -93.932 C 256.864 -90.113 255.771 -85.538 256.757 -79.534 C 258.285 -69.933 267.113 -52.481 286.093 -52.48 L 286.094 -52.473 Z M 222.594 -137.569 L 215.494 -102.197 L 215.154 -102.417 C 214.703 -106.604 214.252 -110.781 213.571 -114.959 L 209.972 -137.569 L 186.923 -137.569 L 200.349 -52.473 L 222.616 -52.473 C 242.619 -52.473 256.172 -58.353 252.676 -80.841 C 251.204 -90.217 245.775 -98.581 236.059 -102.197 L 247.553 -137.569 Z M 185.102 -117.563 L 181.954 -137.569 L 139.131 -137.569 L 152.558 -52.473 L 195.389 -52.473 L 192.224 -72.587 L 172.45 -72.587 L 170.638 -84.457 L 188.387 -84.457 L 185.102 -104.571 L 167.362 -104.571 L 165.329 -117.563 Z M 111.525 -137.569 L 103.414 -98.581 L 103.303 -98.581 L 97.1 -137.569 L 74.051 -137.569 L 87.477 -52.473 L 110.535 -52.473 L 104.886 -88.745 L 104.996 -88.745 L 123.307 -52.473 L 147.598 -52.473 L 122.736 -93.603 L 136.266 -137.569 Z M 69.092 -137.569 L 55.457 -137.569 C 37.24 -137.569 23.935 -123.713 28.402 -95.566 C 34.184 -58.697 60.475 -52.479 71.276 -52.479 L 82.518 -52.474 L 79.237 -73.268 L 68.984 -73.268 C 68.984 -73.268 64.232 -72.953 59.856 -76.593 C 54.7 -81 52.169 -88.869 51.202 -95.024 C 49.733 -104.257 50.487 -115.898 60.441 -116.779 L 72.372 -116.776 Z M -6.2 -137.569 L 7.226 -52.473 L 30.284 -52.473 L 16.849 -137.569 Z M -24.391 -137.569 L -47.44 -137.569 L -37.29 -73.268 L -49.942 -73.268 L -46.666 -52.473 L 2.266 -52.473 L -1.01 -73.268 L -14.232 -73.268 Z M -54.911 -73.268 L -71.501 -73.268 C -72.265 -73.309 -73.736 -73.546 -75.032 -74.682 C -75.039 -74.689 -75.047 -74.695 -75.054 -74.702 C -75.178 -74.812 -75.301 -74.93 -75.421 -75.058 C -76.116 -75.806 -76.618 -76.722 -76.768 -77.793 C -77.088 -79.534 -76.324 -81.062 -75.347 -82.368 C -74.361 -83.682 -72.834 -84.774 -71.857 -85.751 C -67.709 -89.02 -64.44 -92.076 -62.477 -95.788 C -60.514 -99.501 -59.75 -103.862 -60.727 -110.079 C -63.126 -125.347 -75.782 -137.569 -91.273 -137.569 L -108.294 -137.569 L -105.008 -116.774 L -89.266 -116.774 C -88.354 -116.749 -86.292 -116.547 -84.988 -115.34 C -84.131 -114.503 -83.503 -113.442 -83.305 -112.149 C -82.986 -110.186 -83.421 -108.765 -84.398 -107.566 C -85.162 -106.367 -86.254 -105.389 -87.56 -104.404 C -91.379 -101.02 -94.657 -97.858 -96.948 -93.932 C -99.018 -90.113 -100.11 -85.538 -99.124 -79.534 C -97.597 -69.933 -88.768 -52.481 -69.789 -52.48 L -69.787 -52.473 L -51.626 -52.473 Z M -108.254 -42.114 L -108.254 -24.176 L -93.879 -24.176 C -91.961 -24.176 -90.362 -22.824 -89.974 -21.023 C -89.97 -21.004 -89.963 -20.987 -89.96 -20.968 C -89.913 -20.734 -89.891 -20.491 -89.887 -20.243 C -89.886 -20.215 -89.88 -20.189 -89.88 -20.161 C -89.88 -18.465 -90.457 -17.238 -91.415 -16.203 C -92.272 -15.167 -93.426 -14.323 -94.665 -13.472 C -98.498 -10.549 -101.841 -7.819 -104.335 -4.428 C -106.727 -1.13 -108.254 2.82 -108.254 8.006 C -108.254 16.298 -102.901 31.37 -86.249 31.37 L -83.756 31.37 C -83.754 31.383 -70.361 31.383 -70.361 31.383 L -70.361 13.843 L -70.361 13.445 L -84.967 13.445 C -87.057 13.445 -88.749 11.815 -88.885 9.76 C -88.891 9.7 -88.901 9.641 -88.904 9.58 C -88.904 9.553 -88.912 9.528 -88.912 9.501 C -88.912 9.463 -88.901 9.427 -88.9 9.389 C -88.899 9.108 -88.875 8.826 -88.811 8.551 C -88.754 8.302 -88.672 8.058 -88.572 7.822 C -88.212 6.974 -87.637 6.229 -87.013 5.559 C -85.961 4.424 -84.527 3.48 -83.467 2.636 C -79.353 -.187 -76.104 -2.825 -73.898 -6.031 C -71.607 -9.238 -70.361 -13.004 -70.361 -18.373 C -70.361 -29.731 -77.319 -39.2 -87.933 -41.601 C -89.623 -41.983 -91.36 -42.114 -93.092 -42.114 Z M -66.082 31.383 L -23.874 31.383 L -23.874 13.445 L -35.279 13.445 L -35.279 -42.114 L -55.161 -42.114 L -55.161 13.445 L -66.082 13.445 Z M 10.913 31.383 L 26.509 -42.114 L 26.509 31.383 L 45.415 31.383 L 61.305 -12.874 L 61.503 -12.675 C 60.725 -4.199 59.257 4.191 59.257 12.667 L 59.257 31.383 L 78.369 31.383 L 78.369 -42.114 L 59.257 -42.114 L 44.447 .286 L 44.248 .095 C 44.733 -6.826 45.614 -13.652 45.614 -20.573 L 45.614 -42.114 L 26.509 -42.114 L 5.945 -42.114 L 4.484 -32.661 L -8.874 -32.661 L -10.532 -42.114 L -31.002 -42.114 L -13.358 31.383 Z M 313.649 69.376 L 217.256 69.376 C 214.33 69.376 211.579 68.237 209.51 66.168 L 206.764 63.42 C 200.63 68.13 193.159 70.647 184.994 70.647 L 183.484 70.647 C 173.709 70.647 165.013 67.128 158.327 60.47 C 158.272 60.418 158.218 60.364 158.161 60.307 L 133.859 36.008 C 133.767 35.916 133.678 35.822 133.591 35.727 C 133.462 35.602 133.338 35.469 133.21 35.342 L 133.206 35.346 C 133.206 35.346 133.127 35.264 132.997 35.125 C 132.187 34.297 131.406 33.424 130.661 32.503 C 129.984 31.705 129.271 30.822 128.644 29.963 C 121.123 36.699 110.85 40.355 98.633 40.355 L -86.249 40.343 C -108.817 40.343 -117.227 20.508 -117.227 8.006 C -117.227 1.409 -115.333 -4.547 -111.563 -9.744 C -110.075 -11.768 -108.403 -13.563 -106.649 -15.203 L -108.254 -15.203 C -113.21 -15.203 -117.227 -19.22 -117.227 -24.176 L -117.227 -42.114 C -117.227 -47.069 -113.21 -51.086 -108.254 -51.086 L -92.103 -51.086 C -94.134 -52.673 -96.042 -54.502 -97.812 -56.566 C -102.997 -62.612 -106.8 -70.671 -107.978 -78.08 C -109.193 -85.48 -108.165 -92.064 -104.837 -98.207 C -104.791 -98.29 -104.745 -98.373 -104.697 -98.454 C -102.554 -102.126 -99.89 -105.126 -97.124 -107.801 L -105.008 -107.801 C -109.423 -107.801 -113.182 -111.013 -113.871 -115.374 L -117.156 -136.169 C -117.566 -138.761 -116.82 -141.402 -115.115 -143.398 C -113.411 -145.393 -110.918 -146.542 -108.294 -146.542 L 264.609 -146.542 C 283.936 -146.542 300.878 -131.465 304.018 -111.473 C 305.242 -103.685 304.389 -97.369 301.337 -91.595 C 299.379 -87.892 296.694 -84.879 293.796 -82.241 L 300.971 -82.241 C 305.386 -82.241 309.145 -79.029 309.833 -74.669 L 313.118 -53.874 C 313.529 -51.281 312.783 -48.64 311.078 -46.645 C 309.373 -44.65 306.88 -43.501 304.256 -43.501 L 289.311 -43.501 L 309.985 -22.831 C 312.054 -20.766 313.22 -17.913 313.197 -14.986 L 313.197 24.543 L 321.4 32.743 C 323.524 34.868 324.679 37.776 324.601 40.775 L 324.601 58.425 C 324.601 64.464 319.687 69.376 313.649 69.376 M 220.582 -70.784 L 217.187 -91.799 L 218.659 -91.91 C 224.76 -91.91 228.946 -86.6 229.728 -81.061 C 230.98 -73.609 226.904 -70.443 220.582 -70.784 " fill="#333f48"/>
</g>
</g>
</g>
</g>
</svg>