<?xml version="1.0" encoding="UTF-8"?>
<svg id="Layer_2" data-name="Layer 2" xmlns="http://www.w3.org/2000/svg" viewBox="0 0 1920 1080">
  <defs>
    <style>
      .cls-1 {
        fill: #fff;
      }

      .cls-2 {
        fill: #929292;
      }
    </style>
  </defs>
  <polygon class="cls-1" points="461.5 340.23 532.57 340.23 430.74 520.78 359.62 520.78 461.5 340.23"/>
  <polygon class="cls-1" points="461.39 750.93 532.47 750.93 430.64 570.38 359.51 570.38 461.39 750.93"/>
  <polygon class="cls-2" points="638.16 520.78 561.62 385.06 526.07 448.09 567.09 520.78 638.16 520.78"/>
  <polygon class="cls-2" points="558.98 700.62 639.82 567.41 567.45 567.29 524.17 638.66 558.98 700.62"/>
  <g>
    <path class="cls-1" d="M756.43,577.71c-1.36-1.56-1.94-5.26-1.94-10.14-3.51,7.33-12.32,11.81-23.04,11.81-12.1,0-23.73-7.5-23.73-20.45,0-14.87,10.4-20.57,28.57-22.98,14.5-1.98,18.16-3.67,18.16-7.63,0-4.33-3.71-6.73-9.86-6.73-5.76,0-10.13,3.16-11.99,8.99l-22.12-2.22c3.16-13.95,16.25-22,34.55-22,22.09,0,33.13,8.92,33.13,23.88v34.44c0,6.7,.13,10.54,1.87,13.03h-23.59Zm-1.98-32.82c-2.27,1.32-6.4,2.03-12.21,3.04-6.28,1.11-10.36,4.05-10.36,9.19,0,4.67,3.38,7.61,8.5,7.61,5.74,0,14.07-3.79,14.07-13.75v-6.09Z"/>
    <path class="cls-1" d="M808.94,568.35h-.53v32.5h-23.71v-93.83h22.75v9.36h.53c4.83-8.55,13.09-11.03,21.56-11.03,17.23,0,30.09,13.68,30.09,36.41s-12.86,36.6-29.42,36.6c-10.13,0-16.92-3.45-21.27-10.02Zm-1.66-26.49c0,13.63,5.66,19.32,14.08,19.32s14.11-5.7,14.11-19.32-5.56-19.23-14.11-19.23-14.08,5.69-14.08,19.23Z"/>
    <path class="cls-1" d="M890.35,568.35h-.53v32.5h-23.71v-93.83h22.75v9.36h.53c4.83-8.55,13.09-11.03,21.56-11.03,17.23,0,30.09,13.68,30.09,36.41s-12.86,36.6-29.42,36.6c-10.13,0-16.92-3.45-21.27-10.02Zm-1.66-26.49c0,13.63,5.66,19.32,14.08,19.32s14.11-5.7,14.11-19.32-5.56-19.23-14.11-19.23-14.08,5.69-14.08,19.23Z"/>
    <path class="cls-1" d="M970.25,483.7v95.03h-23.7v-95.03h23.7Z"/>
    <path class="cls-1" d="M1002.16,509.05v69.68h-23.71v-69.68h23.71Zm-.69-21.03c0,5.9-5.1,10.68-11.39,10.68s-11.39-4.78-11.39-10.68,5.1-10.68,11.39-10.68,11.39,4.78,11.39,10.68Z"/>
    <path class="cls-1" d="M1082.87,557.67c-2.33,9.69-12.61,22.73-36.6,22.73s-37.66-13.72-37.66-36.38,13.77-36.64,37.62-36.64,39.1,13.85,37.43,41.12h-50.72c.11,10.48,5.39,16.8,13.34,16.8s11.32-4.77,12.28-8.96l24.32,1.33Zm-49.77-22.57h26.23c-.3-7.65-5.15-13.09-13.11-13.09s-12.83,5.44-13.13,13.09Z"/>
    <path class="cls-1" d="M1139.13,516.38h.53v-33.69h23.7v95.03h-22.75v-9.36h-.53c-4.8,8.39-13.09,11.03-21.56,11.03-17.23,0-30.1-13.68-30.1-36.41s12.86-36.6,29.42-36.6c10.13,0,17.06,3.71,21.27,10.02Zm1.66,26.59c0-13.63-5.66-19.32-14.08-19.32s-14.11,5.7-14.11,19.32,5.56,19.23,14.11,19.23,14.08-5.7,14.08-19.23Z"/>
    <path class="cls-1" d="M1202.89,578.73l-25.19-69.68h25.52l13.9,44.58h.53l13.72-44.58h25.12l-25.2,69.68h-28.41Z"/>
    <path class="cls-1" d="M1336.04,529.34c-.94-5.48-5.18-8.82-11.31-8.82-5.34,0-9.37,2.22-9.37,6.37s4.11,5.3,11.11,6.43l7.52,1.14c13.2,2.1,26.32,5.87,26.32,22.12s-15.16,22.79-35.09,22.79-33.27-7.54-35.67-22.04l22.41-2.25c1.11,6.62,5.87,10.06,13.43,10.06,6.66,0,10.76-2.84,10.76-7.42,0-3.61-4.4-5.58-11.79-6.74l-8.42-1.28c-11.71-1.74-24.15-5.99-24.15-21.37s16-21.99,32.7-21.99,30.94,7.04,33.48,20.92l-21.93,2.06Z"/>
    <path class="cls-1" d="M1468.17,542.97c0,22.74-14.06,36.41-38.01,36.41s-38.05-13.68-38.05-36.41,13.96-36.6,38.05-36.6,38.01,13.77,38.01,36.6Zm-24.17,0c0-14.2-5.43-19.89-13.85-19.89s-13.88,5.7-13.88,19.89,5.43,19.7,13.88,19.7,13.85-5.5,13.85-19.7Z"/>
    <path class="cls-1" d="M1496.79,518.49c4.12-5.66,11.03-11.1,22.75-11.1,14.41,0,24.76,8.11,24.76,25.79v45.56h-23.71v-40.16c0-9.3-3.93-12.75-10.85-12.75s-12.53,4.7-12.53,15.33v37.59h-23.71v-69.68h22.75v9.44h.53Z"/>
    <path class="cls-1" d="M1594.74,530.36c-.94-5.48-5.18-8.82-11.31-8.82-5.34,0-9.37,2.22-9.37,6.37s4.11,5.3,11.11,6.43l7.52,1.14c13.2,2.1,26.32,5.87,26.32,22.12s-15.16,22.79-35.09,22.79-33.27-7.54-35.67-22.04l22.41-2.25c1.11,6.62,5.87,10.06,13.43,10.06,6.66,0,10.76-2.84,10.76-7.42,0-3.61-4.4-5.58-11.79-6.74l-8.42-1.28c-11.71-1.74-24.15-5.99-24.15-21.37s16-21.99,32.7-21.99,30.94,7.04,33.48,20.92l-21.93,2.06Z"/>
    <path class="cls-1" d="M1285.85,508.84v69.68h-23.71v-69.68h23.71Zm-.69-21.03c0,5.9-5.1,10.68-11.39,10.68s-11.39-4.78-11.39-10.68,5.1-10.68,11.39-10.68,11.39,4.78,11.39,10.68Z"/>
    <path class="cls-1" d="M1387.84,508.84v69.68h-23.71v-69.68h23.71Zm-.69-21.03c0,5.9-5.1,10.68-11.39,10.68s-11.39-4.78-11.39-10.68,5.1-10.68,11.39-10.68,11.39,4.78,11.39,10.68Z"/>
  </g>
</svg>